<?xml version="1.0" encoding="UTF-8" standalone="no"?>
<!DOCTYPE svg PUBLIC "-//W3C//DTD SVG 1.1//EN"
 "http://www.w3.org/Graphics/SVG/1.1/DTD/svg11.dtd">
<!-- Generated by graphviz version 2.43.0 (0)
 -->
<!-- Pages: 1 -->
<svg width="514pt" height="262pt"
 viewBox="0.00 0.00 514.00 262.07" xmlns="http://www.w3.org/2000/svg" xmlns:xlink="http://www.w3.org/1999/xlink">
<g id="graph0" class="graph" transform="scale(1 1) rotate(0) translate(4 258.07)">
<polygon fill="white" stroke="transparent" points="-4,4 -4,-258.07 510,-258.07 510,4 -4,4"/>
<!-- n0 -->
<g id="node1" class="node">
<title>n0</title>
<polygon fill="none" stroke="#484061" points="506,-108.07 436,-108.07 436,-72.07 506,-72.07 506,-108.07"/>
<text text-anchor="middle" x="471" y="-86.37" font-family="Times,serif" font-size="14.00">&lt;root&gt;</text>
</g>
<!-- n1 -->
<g id="node2" class="node">
<title>n1</title>
<g id="a_node2"><a xlink:title="example.com/depusagetest.main">
<polygon fill="none" stroke="#484061" points="54,-108.07 0,-108.07 0,-72.07 54,-72.07 54,-108.07"/>
<text text-anchor="middle" x="27" y="-86.37" font-family="Times,serif" font-size="14.00">main</text>
</a>
</g>
</g>
<!-- n2 -->
<g id="node5" class="node">
<title>n2</title>
<g id="a_node5"><a xlink:title="example.com/depusagetest.worker">
<polygon fill="none" stroke="#484061" points="183.5,-181.07 116.5,-181.07 116.5,-145.07 183.5,-145.07 183.5,-181.07"/>
<text text-anchor="middle" x="150" y="-159.37" font-family="Times,serif" font-size="14.00">worker</text>
</a>
</g>
</g>
<!-- n1&#45;&gt;n2 -->
<g id="edge1" class="edge">
<title>n1&#45;&gt;n2</title>
<g id="a_edge1"><a xlink:title="concurrent go worker(1:int, t4, t5)">
<path fill="none" stroke="#1f77b4" stroke-dasharray="5,2" d="M54.26,-105.91C71.07,-116.05 93.14,-129.37 111.75,-140.59"/>
<ellipse fill="#1f77b4" stroke="#1f77b4" cx="115.54" cy="-142.88" rx="4" ry="4"/>
</a>
</g>
<text text-anchor="middle" x="84.5" y="-133.87" font-family="Times,serif" font-size="14.00">go</text>
</g>
<!-- n6 -->
<g id="node9" class="node">
<title>n6</title>
<g id="a_node9"><a xlink:title="example.com/depusagetest.main$1">
<polygon fill="none" stroke="#6c3636" stroke-dasharray="5,2" points="185,-54.07 115,-54.07 115,-18.07 185,-18.07 185,-54.07"/>
<text text-anchor="middle" x="150" y="-32.37" font-family="Times,serif" font-size="14.00">main$1</text>
</a>
</g>
</g>
<!-- n1&#45;&gt;n6 -->
<g id="edge2" class="edge">
<title>n1&#45;&gt;n6</title>
<g id="a_edge2"><a xlink:title="concurrent go t9()">
<path fill="none" stroke="#1f77b4" stroke-dasharray="5,2" d="M54.26,-78.35C69.82,-71.4 89.91,-62.44 107.57,-54.56"/>
<ellipse fill="#1f77b4" stroke="#1f77b4" cx="111.32" cy="-52.88" rx="4" ry="4"/>
</a>
</g>
<text text-anchor="middle" x="84.5" y="-73.87" font-family="Times,serif" font-size="14.00">go</text>
</g>
<!-- n8 -->
<g id="node11" class="node">
<title>n8</title>
<g id="a_node11"><a xlink:title="example.com/depusagetest.main$2">
<polygon fill="none" stroke="#6c3636" stroke-dasharray="5,2" points="185,-108.07 115,-108.07 115,-72.07 185,-72.07 185,-108.07"/>
<text text-anchor="middle" x="150" y="-86.37" font-family="Times,serif" font-size="14.00">main$2</text>
</a>
</g>
</g>
<!-- n1&#45;&gt;n8 -->
<g id="edge3" class="edge">
<title>n1&#45;&gt;n8</title>
<g id="a_edge3"><a xlink:title="main$2(t12)">
<path fill="none" stroke="#2b2b2b" d="M54.26,-90.07C68.99,-90.07 87.77,-90.07 104.71,-90.07"/>
<polygon fill="#2b2b2b" stroke="#2b2b2b" points="104.97,-93.57 114.97,-90.07 104.97,-86.57 104.97,-93.57"/>
</a>
</g>
<text text-anchor="middle" x="84.5" y="-93.87" font-family="Times,serif" font-size="14.00">call</text>
</g>
<!-- n10 -->
<g id="node3" class="node">
<title>n10</title>
<g id="a_node3"><a xlink:title="example.com/depusagetest.init">
<polygon fill="none" stroke="#484061" points="54,-162.07 0,-162.07 0,-126.07 54,-126.07 54,-162.07"/>
<text text-anchor="middle" x="27" y="-140.37" font-family="Times,serif" font-size="14.00">init</text>
</a>
</g>
</g>
<!-- n11 -->
<g id="node4" class="node">
<title>n11</title>
<g id="a_node4"><a xlink:title="example.com/depusagetest/something.init">
<polygon fill="none" stroke="#484061" points="54,-216.07 0,-216.07 0,-180.07 54,-180.07 54,-216.07"/>
<text text-anchor="middle" x="27" y="-194.37" font-family="Times,serif" font-size="14.00">init</text>
</a>
</g>
</g>
<!-- n2&#45;&gt;n0 -->
<g id="edge11" class="edge">
<title>n2&#45;&gt;n0</title>
<g id="a_edge11"><a xlink:title="send results &lt;&#45; t5">
<path fill="none" stroke="black" d="M183.85,-158.06C234.61,-149.96 334.93,-132.5 418,-109.07 420.73,-108.3 423.53,-107.45 426.33,-106.56"/>
<polygon fill="black" stroke="black" points="427.46,-109.87 435.83,-103.38 425.24,-103.23 427.46,-109.87"/>
</a>
</g>
</g>
<!-- n3 -->
<g id="node6" class="node">
<title>n3</title>
<g id="a_node6"><a xlink:title="example.com/depusagetest.worker$1">
<polygon fill="none" stroke="#6c3636" stroke-dasharray="5,2" points="352.5,-200.07 267.5,-200.07 267.5,-164.07 352.5,-164.07 352.5,-200.07"/>
<text text-anchor="middle" x="310" y="-178.37" font-family="Times,serif" font-size="14.00">worker$1</text>
</a>
</g>
</g>
<!-- n2&#45;&gt;n3 -->
<g id="edge9" class="edge">
<title>n2&#45;&gt;n3</title>
<g id="a_edge9"><a xlink:title="deferred defer t1()">
<path fill="none" stroke="#9467bd" stroke-dasharray="1,5" d="M183.74,-167C204.37,-169.48 231.49,-172.75 255.23,-175.6"/>
<polygon fill="#9467bd" stroke="#9467bd" points="255.36,-175.62 261.79,-172.36 267.27,-177.05 260.84,-180.3 255.36,-175.62"/>
</a>
</g>
<text text-anchor="middle" x="222" y="-176.87" font-family="Times,serif" font-size="14.00">defer</text>
</g>
<!-- n4 -->
<g id="node7" class="node">
<title>n4</title>
<g id="a_node7"><a xlink:title="example.com/depusagetest.square">
<polygon fill="none" stroke="#484061" points="342.5,-254.07 277.5,-254.07 277.5,-218.07 342.5,-218.07 342.5,-254.07"/>
<text text-anchor="middle" x="310" y="-232.37" font-family="Times,serif" font-size="14.00">square</text>
</a>
</g>
</g>
<!-- n2&#45;&gt;n4 -->
<g id="edge10" class="edge">
<title>n2&#45;&gt;n4</title>
<g id="a_edge10"><a xlink:title="square(t4)">
<path fill="none" stroke="#2b2b2b" d="M182.04,-181.14C188.87,-184.9 196.12,-188.73 203,-192.07 223.96,-202.22 247.87,-212.27 267.68,-220.2"/>
<polygon fill="#2b2b2b" stroke="#2b2b2b" points="266.45,-223.48 277.04,-223.91 269.03,-216.97 266.45,-223.48"/>
</a>
</g>
<text text-anchor="middle" x="222" y="-211.87" font-family="Times,serif" font-size="14.00">call</text>
</g>
<!-- n5 -->
<g id="node8" class="node">
<title>n5</title>
<g id="a_node8"><a xlink:title="example.com/depusagetest.mul">
<polygon fill="none" stroke="#484061" points="498,-254.07 444,-254.07 444,-218.07 498,-218.07 498,-254.07"/>
<text text-anchor="middle" x="471" y="-232.37" font-family="Times,serif" font-size="14.00">mul</text>
</a>
</g>
</g>
<!-- n4&#45;&gt;n5 -->
<g id="edge4" class="edge">
<title>n4&#45;&gt;n5</title>
<g id="a_edge4"><a xlink:title="mul(x, x)">
<path fill="none" stroke="#2b2b2b" d="M342.79,-236.07C368.96,-236.07 406.05,-236.07 433.44,-236.07"/>
<polygon fill="#2b2b2b" stroke="#2b2b2b" points="433.79,-239.57 443.79,-236.07 433.79,-232.57 433.79,-239.57"/>
</a>
</g>
<text text-anchor="middle" x="398.5" y="-239.87" font-family="Times,serif" font-size="14.00">call</text>
</g>
<!-- n6&#45;&gt;n0 -->
<g id="edge6" class="edge">
<title>n6&#45;&gt;n0</title>
<g id="a_edge6"><a xlink:title="send t1 &lt;&#45; t2">
<path fill="none" stroke="black" d="M185.34,-22.58C227.67,-8 301.32,10.68 361,-9.07 394.15,-20.03 425.42,-45.42 445.89,-64.87"/>
<polygon fill="black" stroke="black" points="443.59,-67.51 453.19,-71.99 448.48,-62.5 443.59,-67.51"/>
</a>
</g>
</g>
<!-- n7 -->
<g id="node10" class="node">
<title>n7</title>
<g id="a_node10"><a xlink:title="example.com/depusagetest.add">
<polygon fill="none" stroke="#484061" points="337,-54.07 283,-54.07 283,-18.07 337,-18.07 337,-54.07"/>
<text text-anchor="middle" x="310" y="-32.37" font-family="Times,serif" font-size="14.00">add</text>
</a>
</g>
</g>
<!-- n6&#45;&gt;n7 -->
<g id="edge5" class="edge">
<title>n6&#45;&gt;n7</title>
<g id="a_edge5"><a xlink:title="add(2:int, 3:int)">
<path fill="none" stroke="#2b2b2b" d="M185.28,-36.07C210.97,-36.07 246.06,-36.07 272.31,-36.07"/>
<polygon fill="#2b2b2b" stroke="#2b2b2b" points="272.61,-39.57 282.61,-36.07 272.61,-32.57 272.61,-39.57"/>
</a>
</g>
<text text-anchor="middle" x="222" y="-39.87" font-family="Times,serif" font-size="14.00">call</text>
</g>
<!-- n9 -->
<g id="node12" class="node">
<title>n9</title>
<g id="a_node12"><a xlink:title="example.com/depusagetest.maybePanic">
<polygon fill="none" stroke="#484061" points="361,-108.07 259,-108.07 259,-72.07 361,-72.07 361,-108.07"/>
<text text-anchor="middle" x="310" y="-86.37" font-family="Times,serif" font-size="14.00">maybePanic</text>
</a>
</g>
</g>
<!-- n8&#45;&gt;n9 -->
<g id="edge7" class="edge">
<title>n8&#45;&gt;n9</title>
<g id="a_edge7"><a xlink:title="maybePanic(v)">
<path fill="none" stroke="#2b2b2b" d="M185.28,-90.07C203.85,-90.07 227.34,-90.07 248.84,-90.07"/>
<polygon fill="#2b2b2b" stroke="#2b2b2b" points="248.88,-93.57 258.88,-90.07 248.88,-86.57 248.88,-93.57"/>
</a>
</g>
<text text-anchor="middle" x="222" y="-93.87" font-family="Times,serif" font-size="14.00">call</text>
</g>
<!-- n9&#45;&gt;n0 -->
<g id="edge8" class="edge">
<title>n9&#45;&gt;n0</title>
<g id="a_edge8"><a xlink:title="panic t1">
<path fill="none" stroke="#d62728" stroke-width="2" d="M361.31,-90.07C383.62,-90.07 409.49,-90.07 430.39,-90.07"/>
<polygon fill="#d62728" stroke="#d62728" stroke-width="2" points="434.6,-85.07 434.6,-95.07 432.6,-95.07 432.6,-85.07 434.6,-85.07"/>
<polyline fill="none" stroke="#d62728" stroke-width="2" points="435.6,-90.07 430.6,-90.07 "/>
</a>
</g>
<text text-anchor="middle" x="398.5" y="-93.87" font-family="Times,serif" font-size="14.00">panic</text>
</g>
</g>
</svg>
