<?xml version="1.0" encoding="UTF-8" standalone="no"?>
<!DOCTYPE svg PUBLIC "-//W3C//DTD SVG 1.1//EN"
 "http://www.w3.org/Graphics/SVG/1.1/DTD/svg11.dtd">
<!-- Generated by graphviz version 2.43.0 (0)
 -->
<!-- Pages: 1 -->
<svg width="536pt" height="391pt"
 viewBox="0.00 0.00 536.00 391.00" xmlns="http://www.w3.org/2000/svg" xmlns:xlink="http://www.w3.org/1999/xlink">
<g id="graph0" class="graph" transform="scale(1 1) rotate(0) translate(4 387)">
<polygon fill="white" stroke="transparent" points="-4,4 -4,-387 532,-387 532,4 -4,4"/>
<g id="clust1" class="cluster">
<title>cluster_example.com/depusagetest/something</title>
<g id="a_clust1"><a xlink:title="example.com/depusagetest/something">
<polygon fill="#ebc38b" stroke="#af7a2e" points="115,-246 115,-375 207,-375 207,-246 115,-246"/>
<text text-anchor="middle" x="161" y="-359.8" font-family="Times,serif" font-size="14.00">something</text>
</a>
</g>
</g>
<!-- ext_11 -->
<g id="node1" class="node">
<title>ext_11</title>
<g id="a_node1"><a xlink:title="(*example.com/depusagetest/something.Bob).Ping">
<polygon fill="#f5e6c8" stroke="#444444" points="188,-290 134,-290 134,-254 188,-254 188,-290"/>
<text text-anchor="middle" x="161" y="-268.3" font-family="Times,serif" font-size="14.00">Ping</text>
</a>
</g>
</g>
<!-- ext_1 -->
<g id="node2" class="node">
<title>ext_1</title>
<g id="a_node2"><a xlink:title="example.com/depusagetest/something.init">
<polygon fill="#f5e6c8" stroke="#444444" points="188,-344 134,-344 134,-308 188,-308 188,-344"/>
<text text-anchor="middle" x="161" y="-322.3" font-family="Times,serif" font-size="14.00">init</text>
</a>
</g>
</g>
<!-- n0 -->
<g id="node3" class="node">
<title>n0</title>
<polygon fill="none" stroke="#484061" points="528,-182 458,-182 458,-146 528,-146 528,-182"/>
<text text-anchor="middle" x="493" y="-160.3" font-family="Times,serif" font-size="14.00">&lt;root&gt;</text>
</g>
<!-- n10 -->
<g id="node4" class="node">
<title>n10</title>
<g id="a_node4"><a xlink:title="example.com/depusagetest.main$2">
<polygon fill="none" stroke="#6c3636" stroke-dasharray="5,2" points="196,-182 126,-182 126,-146 196,-146 196,-182"/>
<text text-anchor="middle" x="161" y="-160.3" font-family="Times,serif" font-size="14.00">main$2</text>
</a>
</g>
</g>
<!-- n6 -->
<g id="node10" class="node">
<title>n6</title>
<g id="a_node10"><a xlink:title="example.com/depusagetest.maybePanic">
<polygon fill="none" stroke="#484061" points="383,-182 281,-182 281,-146 383,-146 383,-182"/>
<text text-anchor="middle" x="332" y="-160.3" font-family="Times,serif" font-size="14.00">maybePanic</text>
</a>
</g>
</g>
<!-- n10&#45;&gt;n6 -->
<g id="edge13" class="edge">
<title>n10&#45;&gt;n6</title>
<g id="a_edge13"><a xlink:title="maybePanic(v)">
<path fill="none" stroke="#2b2b2b" d="M196.2,-164C217.56,-164 245.67,-164 270.68,-164"/>
<polygon fill="#2b2b2b" stroke="#2b2b2b" points="270.82,-167.5 280.82,-164 270.82,-160.5 270.82,-167.5"/>
</a>
</g>
<text text-anchor="middle" x="244" y="-167.8" font-family="Times,serif" font-size="14.00">call</text>
</g>
<!-- n13 -->
<g id="node5" class="node">
<title>n13</title>
<g id="a_node5"><a xlink:title="example.com/depusagetest.init">
<polygon fill="none" stroke="#484061" points="54,-344 0,-344 0,-308 54,-308 54,-344"/>
<text text-anchor="middle" x="27" y="-322.3" font-family="Times,serif" font-size="14.00">init</text>
</a>
</g>
</g>
<!-- n13&#45;&gt;ext_1 -->
<g id="edge9" class="edge">
<title>n13&#45;&gt;ext_1</title>
<g id="a_edge9"><a xlink:title="example.com/depusagetest/something.init()">
<path fill="none" stroke="#2b2b2b" d="M54.08,-326C74.06,-326 101.85,-326 123.95,-326"/>
<polygon fill="#2b2b2b" stroke="#2b2b2b" points="123.98,-329.5 133.98,-326 123.98,-322.5 123.98,-329.5"/>
</a>
</g>
<text text-anchor="middle" x="84.5" y="-329.8" font-family="Times,serif" font-size="14.00">call</text>
</g>
<!-- n2 -->
<g id="node6" class="node">
<title>n2</title>
<g id="a_node6"><a xlink:title="example.com/depusagetest.square">
<polygon fill="none" stroke="#484061" points="364.5,-36 299.5,-36 299.5,0 364.5,0 364.5,-36"/>
<text text-anchor="middle" x="332" y="-14.3" font-family="Times,serif" font-size="14.00">square</text>
</a>
</g>
</g>
<!-- n3 -->
<g id="node7" class="node">
<title>n3</title>
<g id="a_node7"><a xlink:title="example.com/depusagetest.mul">
<polygon fill="none" stroke="#484061" points="520,-36 466,-36 466,0 520,0 520,-36"/>
<text text-anchor="middle" x="493" y="-14.3" font-family="Times,serif" font-size="14.00">mul</text>
</a>
</g>
</g>
<!-- n2&#45;&gt;n3 -->
<g id="edge10" class="edge">
<title>n2&#45;&gt;n3</title>
<g id="a_edge10"><a xlink:title="mul(x, x)">
<path fill="none" stroke="#2b2b2b" d="M364.79,-18C390.96,-18 428.05,-18 455.44,-18"/>
<polygon fill="#2b2b2b" stroke="#2b2b2b" points="455.79,-21.5 465.79,-18 455.79,-14.5 455.79,-21.5"/>
</a>
</g>
<text text-anchor="middle" x="420.5" y="-21.8" font-family="Times,serif" font-size="14.00">call</text>
</g>
<!-- n4 -->
<g id="node8" class="node">
<title>n4</title>
<g id="a_node8"><a xlink:title="example.com/depusagetest.worker">
<polygon fill="none" stroke="#484061" points="194.5,-105 127.5,-105 127.5,-69 194.5,-69 194.5,-105"/>
<text text-anchor="middle" x="161" y="-83.3" font-family="Times,serif" font-size="14.00">worker</text>
</a>
</g>
</g>
<!-- n4&#45;&gt;n0 -->
<g id="edge3" class="edge">
<title>n4&#45;&gt;n0</title>
<g id="a_edge3"><a xlink:title="send results &lt;&#45; t5">
<path fill="none" stroke="black" d="M194.85,-79.79C238.92,-71.57 319.06,-61.84 383,-83 416.15,-93.97 447.42,-119.35 467.89,-138.8"/>
<polygon fill="black" stroke="black" points="465.59,-141.44 475.19,-145.92 470.48,-136.43 465.59,-141.44"/>
</a>
</g>
</g>
<!-- n4&#45;&gt;n2 -->
<g id="edge2" class="edge">
<title>n4&#45;&gt;n2</title>
<g id="a_edge2"><a xlink:title="square(t4)">
<path fill="none" stroke="#2b2b2b" d="M178.71,-68.93C190.5,-57.33 207.3,-43 225,-35 244.96,-25.98 268.93,-21.66 289.02,-19.62"/>
<polygon fill="#2b2b2b" stroke="#2b2b2b" points="289.47,-23.1 299.14,-18.75 288.87,-16.12 289.47,-23.1"/>
</a>
</g>
<text text-anchor="middle" x="244" y="-38.8" font-family="Times,serif" font-size="14.00">call</text>
</g>
<!-- n5 -->
<g id="node9" class="node">
<title>n5</title>
<g id="a_node9"><a xlink:title="example.com/depusagetest.worker$1">
<polygon fill="none" stroke="#6c3636" stroke-dasharray="5,2" points="374.5,-128 289.5,-128 289.5,-92 374.5,-92 374.5,-128"/>
<text text-anchor="middle" x="332" y="-106.3" font-family="Times,serif" font-size="14.00">worker$1</text>
</a>
</g>
</g>
<!-- n4&#45;&gt;n5 -->
<g id="edge1" class="edge">
<title>n4&#45;&gt;n5</title>
<g id="a_edge1"><a xlink:title="deferred defer t1()">
<path fill="none" stroke="#9467bd" stroke-dasharray="1,5" d="M194.58,-91.43C217.96,-94.62 249.98,-98.97 277.13,-102.67"/>
<polygon fill="#9467bd" stroke="#9467bd" points="277.32,-102.69 283.81,-99.54 289.21,-104.31 282.73,-107.47 277.32,-102.69"/>
</a>
</g>
<text text-anchor="middle" x="244" y="-104.8" font-family="Times,serif" font-size="14.00">defer</text>
</g>
<!-- n6&#45;&gt;n0 -->
<g id="edge4" class="edge">
<title>n6&#45;&gt;n0</title>
<g id="a_edge4"><a xlink:title="panic t1">
<path fill="none" stroke="#d62728" stroke-width="2" d="M383.31,-164C405.62,-164 431.49,-164 452.39,-164"/>
<polygon fill="#d62728" stroke="#d62728" stroke-width="2" points="456.6,-159 456.6,-169 454.6,-169 454.6,-159 456.6,-159"/>
<polyline fill="none" stroke="#d62728" stroke-width="2" points="457.6,-164 452.6,-164 "/>
</a>
</g>
<text text-anchor="middle" x="420.5" y="-167.8" font-family="Times,serif" font-size="14.00">panic</text>
</g>
<!-- n7 -->
<g id="node11" class="node">
<title>n7</title>
<g id="a_node11"><a xlink:title="example.com/depusagetest.main">
<polygon fill="none" stroke="#484061" points="54,-201 0,-201 0,-165 54,-165 54,-201"/>
<text text-anchor="middle" x="27" y="-179.3" font-family="Times,serif" font-size="14.00">main</text>
</a>
</g>
</g>
<!-- n7&#45;&gt;ext_11 -->
<g id="edge8" class="edge">
<title>n7&#45;&gt;ext_11</title>
<g id="a_edge8"><a xlink:title="(*example.com/depusagetest/something.Bob).Ping(t14)">
<path fill="none" stroke="#2b2b2b" d="M48.03,-201.05C55.36,-207.32 63.86,-214.23 72,-220 88.86,-231.95 108.59,-243.78 125.09,-253.14"/>
<polygon fill="#2b2b2b" stroke="#2b2b2b" points="123.45,-256.23 133.88,-258.06 126.87,-250.12 123.45,-256.23"/>
</a>
</g>
<text text-anchor="middle" x="84.5" y="-239.8" font-family="Times,serif" font-size="14.00">call</text>
</g>
<!-- n7&#45;&gt;n10 -->
<g id="edge7" class="edge">
<title>n7&#45;&gt;n10</title>
<g id="a_edge7"><a xlink:title="main$2(t12)">
<path fill="none" stroke="#2b2b2b" d="M54.42,-176.45C60.19,-175.17 66.28,-173.94 72,-173 86.01,-170.7 101.37,-168.89 115.29,-167.51"/>
<polygon fill="#2b2b2b" stroke="#2b2b2b" points="115.97,-170.96 125.6,-166.54 115.32,-163.99 115.97,-170.96"/>
</a>
</g>
<text text-anchor="middle" x="84.5" y="-176.8" font-family="Times,serif" font-size="14.00">call</text>
</g>
<!-- n7&#45;&gt;n4 -->
<g id="edge5" class="edge">
<title>n7&#45;&gt;n4</title>
<g id="a_edge5"><a xlink:title="concurrent go worker(1:int, t4, t5)">
<path fill="none" stroke="#1f77b4" stroke-dasharray="5,2" d="M52.83,-164.94C74.17,-149.42 105.08,-126.94 128.22,-110.11"/>
<ellipse fill="#1f77b4" stroke="#1f77b4" cx="131.6" cy="-107.66" rx="4" ry="4"/>
</a>
</g>
<text text-anchor="middle" x="84.5" y="-153.8" font-family="Times,serif" font-size="14.00">go</text>
</g>
<!-- n8 -->
<g id="node12" class="node">
<title>n8</title>
<g id="a_node12"><a xlink:title="example.com/depusagetest.main$1">
<polygon fill="none" stroke="#6c3636" stroke-dasharray="5,2" points="196,-236 126,-236 126,-200 196,-200 196,-236"/>
<text text-anchor="middle" x="161" y="-214.3" font-family="Times,serif" font-size="14.00">main$1</text>
</a>
</g>
</g>
<!-- n7&#45;&gt;n8 -->
<g id="edge6" class="edge">
<title>n7&#45;&gt;n8</title>
<g id="a_edge6"><a xlink:title="concurrent go t9()">
<path fill="none" stroke="#1f77b4" stroke-dasharray="5,2" d="M54.08,-189.91C72.33,-194.76 97.11,-201.33 118.12,-206.89"/>
<ellipse fill="#1f77b4" stroke="#1f77b4" cx="122.09" cy="-207.95" rx="4" ry="4"/>
</a>
</g>
<text text-anchor="middle" x="84.5" y="-204.8" font-family="Times,serif" font-size="14.00">go</text>
</g>
<!-- n8&#45;&gt;n0 -->
<g id="edge12" class="edge">
<title>n8&#45;&gt;n0</title>
<g id="a_edge12"><a xlink:title="send t1 &lt;&#45; t2">
<path fill="none" stroke="black" d="M196.23,-231.17C240.45,-246.18 319.33,-266.07 383,-245 416.15,-234.03 447.42,-208.65 467.89,-189.2"/>
<polygon fill="black" stroke="black" points="470.48,-191.57 475.19,-182.08 465.59,-186.56 470.48,-191.57"/>
</a>
</g>
</g>
<!-- n9 -->
<g id="node13" class="node">
<title>n9</title>
<g id="a_node13"><a xlink:title="example.com/depusagetest.add">
<polygon fill="none" stroke="#484061" points="359,-236 305,-236 305,-200 359,-200 359,-236"/>
<text text-anchor="middle" x="332" y="-214.3" font-family="Times,serif" font-size="14.00">add</text>
</a>
</g>
</g>
<!-- n8&#45;&gt;n9 -->
<g id="edge11" class="edge">
<title>n8&#45;&gt;n9</title>
<g id="a_edge11"><a xlink:title="add(2:int, 3:int)">
<path fill="none" stroke="#2b2b2b" d="M196.2,-218C224.8,-218 265.5,-218 294.68,-218"/>
<polygon fill="#2b2b2b" stroke="#2b2b2b" points="294.87,-221.5 304.87,-218 294.87,-214.5 294.87,-221.5"/>
</a>
</g>
<text text-anchor="middle" x="244" y="-221.8" font-family="Times,serif" font-size="14.00">call</text>
</g>
</g>
</svg>
