<?xml version="1.0" encoding="UTF-8" standalone="no"?>
<!DOCTYPE svg PUBLIC "-//W3C//DTD SVG 1.1//EN"
 "http://www.w3.org/Graphics/SVG/1.1/DTD/svg11.dtd">
<!-- Generated by graphviz version 2.43.0 (0)
 -->
<!-- Pages: 1 -->
<svg width="516pt" height="620pt"
 viewBox="0.00 0.00 516.00 620.00" xmlns="http://www.w3.org/2000/svg" xmlns:xlink="http://www.w3.org/1999/xlink">
<g id="graph0" class="graph" transform="scale(1 1) rotate(0) translate(4 616)">
<polygon fill="white" stroke="transparent" points="-4,4 -4,-616 512,-616 512,4 -4,4"/>
<g id="clust1" class="cluster">
<title>cluster_example.com/depusagetest/something</title>
<g id="a_clust1"><a xlink:title="example.com/depusagetest/something">
<polygon fill="#ebc38b" stroke="#af7a2e" points="109,-475 109,-604 201,-604 201,-475 109,-475"/>
<text text-anchor="middle" x="155" y="-588.8" font-family="Times,serif" font-size="14.00">something</text>
</a>
</g>
</g>
<g id="clust2" class="cluster">
<title>cluster_fmt</title>
<g id="a_clust2"><a xlink:title="fmt">
<polygon fill="#ebc38b" stroke="#af7a2e" points="114,-284 114,-467 196,-467 196,-284 114,-284"/>
<text text-anchor="middle" x="155" y="-451.8" font-family="Times,serif" font-size="14.00">fmt</text>
</a>
</g>
</g>
<!-- ext_4577 -->
<g id="node1" class="node">
<title>ext_4577</title>
<g id="a_node1"><a xlink:title="example.com/depusagetest/something.init">
<polygon fill="#f5e6c8" stroke="#444444" points="182,-573 128,-573 128,-537 182,-537 182,-573"/>
<text text-anchor="middle" x="155" y="-551.3" font-family="Times,serif" font-size="14.00">init</text>
</a>
</g>
</g>
<!-- ext_4570 -->
<g id="node2" class="node">
<title>ext_4570</title>
<g id="a_node2"><a xlink:title="example.com/depusagetest/something.Map">
<polygon fill="#f5e6c8" stroke="#444444" points="182,-519 128,-519 128,-483 182,-483 182,-519"/>
<text text-anchor="middle" x="155" y="-497.3" font-family="Times,serif" font-size="14.00">Map</text>
</a>
</g>
</g>
<!-- ext_4560 -->
<g id="node3" class="node">
<title>ext_4560</title>
<g id="a_node3"><a xlink:title="fmt.Printf">
<polygon fill="#f5e6c8" stroke="#444444" points="184,-382 126,-382 126,-346 184,-346 184,-382"/>
<text text-anchor="middle" x="155" y="-360.3" font-family="Times,serif" font-size="14.00">Printf</text>
</a>
</g>
</g>
<!-- ext_4573 -->
<g id="node4" class="node">
<title>ext_4573</title>
<g id="a_node4"><a xlink:title="fmt.init">
<polygon fill="#f5e6c8" stroke="#444444" points="182,-436 128,-436 128,-400 182,-400 182,-436"/>
<text text-anchor="middle" x="155" y="-414.3" font-family="Times,serif" font-size="14.00">init</text>
</a>
</g>
</g>
<!-- ext_4470 -->
<g id="node5" class="node">
<title>ext_4470</title>
<g id="a_node5"><a xlink:title="fmt.Println">
<polygon fill="#f5e6c8" stroke="#444444" points="188,-328 122,-328 122,-292 188,-292 188,-328"/>
<text text-anchor="middle" x="155" y="-306.3" font-family="Times,serif" font-size="14.00">Println</text>
</a>
</g>
</g>
<!-- n4459 -->
<g id="node6" class="node">
<title>n4459</title>
<g id="a_node6"><a xlink:title="example.com/depusagetest.Map">
<polygon fill="none" stroke="#484061" points="54,-558 0,-558 0,-522 54,-522 54,-558"/>
<text text-anchor="middle" x="27" y="-536.3" font-family="Times,serif" font-size="14.00">Map</text>
</a>
</g>
</g>
<!-- n4460 -->
<g id="node7" class="node">
<title>n4460</title>
<g id="a_node7"><a xlink:title="example.com/depusagetest.main">
<polygon fill="none" stroke="#484061" points="54,-228 0,-228 0,-192 54,-192 54,-228"/>
<text text-anchor="middle" x="27" y="-206.3" font-family="Times,serif" font-size="14.00">main</text>
</a>
</g>
</g>
<!-- n4460&#45;&gt;ext_4570 -->
<g id="edge16" class="edge">
<title>n4460&#45;&gt;ext_4570</title>
<g id="a_edge16"><a xlink:title="example.com/depusagetest/something.Map[int int](t32, square)">
<path fill="none" stroke="#2b2b2b" d="M28.91,-228.23C31.84,-280.38 42.64,-428.85 72,-466 83.29,-480.28 101.51,-488.83 117.91,-493.89"/>
<polygon fill="#2b2b2b" stroke="#2b2b2b" points="117.24,-497.34 127.81,-496.62 119.09,-490.59 117.24,-497.34"/>
</a>
</g>
<text text-anchor="middle" x="84.5" y="-488.8" font-family="Times,serif" font-size="14.00">call</text>
</g>
<!-- n4460&#45;&gt;ext_4560 -->
<g id="edge15" class="edge">
<title>n4460&#45;&gt;ext_4560</title>
<g id="a_edge15"><a xlink:title="fmt.Printf(&quot;Somthing %s&quot;:string, t24...)">
<path fill="none" stroke="#2b2b2b" d="M35.51,-228.41C47.4,-255.52 72.98,-306.29 109,-337 111.65,-339.26 114.5,-341.44 117.45,-343.52"/>
<polygon fill="#2b2b2b" stroke="#2b2b2b" points="115.61,-346.5 125.89,-349.1 119.47,-340.66 115.61,-346.5"/>
</a>
</g>
<text text-anchor="middle" x="84.5" y="-325.8" font-family="Times,serif" font-size="14.00">call</text>
</g>
<!-- n4460&#45;&gt;ext_4470 -->
<g id="edge14" class="edge">
<title>n4460&#45;&gt;ext_4470</title>
<g id="a_edge14"><a xlink:title="fmt.Println(t19...)">
<path fill="none" stroke="#2b2b2b" d="M45.09,-228.06C53.05,-236.21 62.78,-245.83 72,-254 87.64,-267.86 91.79,-271.16 109,-283 110.63,-284.12 112.31,-285.25 114.02,-286.37"/>
<polygon fill="#2b2b2b" stroke="#2b2b2b" points="112.38,-289.48 122.7,-291.9 116.15,-283.58 112.38,-289.48"/>
</a>
</g>
<text text-anchor="middle" x="84.5" y="-277.8" font-family="Times,serif" font-size="14.00">call</text>
</g>
<!-- n4461 -->
<g id="node8" class="node">
<title>n4461</title>
<g id="a_node8"><a xlink:title="example.com/depusagetest.worker">
<polygon fill="none" stroke="#484061" points="188.5,-274 121.5,-274 121.5,-238 188.5,-238 188.5,-274"/>
<text text-anchor="middle" x="155" y="-252.3" font-family="Times,serif" font-size="14.00">worker</text>
</a>
</g>
</g>
<!-- n4460&#45;&gt;n4461 -->
<g id="edge10" class="edge">
<title>n4460&#45;&gt;n4461</title>
<g id="a_edge10"><a xlink:title="concurrent go worker(1:int, t4, t5)">
<path fill="none" stroke="#1f77b4" stroke-dasharray="5,2" d="M54.11,-219.53C71.29,-225.8 94.12,-234.14 113.62,-241.26"/>
<ellipse fill="#1f77b4" stroke="#1f77b4" cx="117.43" cy="-242.65" rx="4" ry="4"/>
</a>
</g>
<text text-anchor="middle" x="84.5" y="-238.8" font-family="Times,serif" font-size="14.00">go</text>
</g>
<!-- n4463 -->
<g id="node10" class="node">
<title>n4463</title>
<g id="a_node10"><a xlink:title="example.com/depusagetest.square">
<polygon fill="none" stroke="#484061" points="352.5,-240 287.5,-240 287.5,-204 352.5,-204 352.5,-240"/>
<text text-anchor="middle" x="320" y="-218.3" font-family="Times,serif" font-size="14.00">square</text>
</a>
</g>
</g>
<!-- n4460&#45;&gt;n4463 -->
<g id="edge17" class="edge">
<title>n4460&#45;&gt;n4463</title>
<g id="a_edge17"><a xlink:title="example.com/depusagetest/something.Map[int int](t32, square)">
<path fill="none" stroke="#000000" d="M54.08,-211.08C104.59,-213.16 216.14,-217.76 277.14,-220.27"/>
<polygon fill="#000000" stroke="#000000" points="277.06,-223.77 287.2,-220.69 277.35,-216.78 277.06,-223.77"/>
</a>
</g>
</g>
<!-- n4465 -->
<g id="node12" class="node">
<title>n4465</title>
<g id="a_node12"><a xlink:title="example.com/depusagetest.main$1">
<polygon fill="none" stroke="#6c3636" stroke-dasharray="5,2" points="190,-182 120,-182 120,-146 190,-146 190,-182"/>
<text text-anchor="middle" x="155" y="-160.3" font-family="Times,serif" font-size="14.00">main$1</text>
</a>
</g>
</g>
<!-- n4460&#45;&gt;n4465 -->
<g id="edge11" class="edge">
<title>n4460&#45;&gt;n4465</title>
<g id="a_edge11"><a xlink:title="concurrent go t9()">
<path fill="none" stroke="#1f77b4" stroke-dasharray="5,2" d="M52.21,-191.71C58.41,-187.69 65.24,-183.81 72,-181 84.45,-175.83 98.65,-172.17 111.68,-169.61"/>
<ellipse fill="#1f77b4" stroke="#1f77b4" cx="115.69" cy="-168.88" rx="4" ry="4"/>
</a>
</g>
<text text-anchor="middle" x="84.5" y="-184.8" font-family="Times,serif" font-size="14.00">go</text>
</g>
<!-- n4467 -->
<g id="node14" class="node">
<title>n4467</title>
<g id="a_node14"><a xlink:title="example.com/depusagetest.main$2">
<polygon fill="none" stroke="#6c3636" stroke-dasharray="5,2" points="190,-128 120,-128 120,-92 190,-92 190,-128"/>
<text text-anchor="middle" x="155" y="-106.3" font-family="Times,serif" font-size="14.00">main$2</text>
</a>
</g>
</g>
<!-- n4460&#45;&gt;n4467 -->
<g id="edge12" class="edge">
<title>n4460&#45;&gt;n4467</title>
<g id="a_edge12"><a xlink:title="main$2(t12)">
<path fill="none" stroke="#2b2b2b" d="M39.73,-191.87C47.82,-180.34 59.36,-165.62 72,-155 83.62,-145.24 97.68,-136.61 110.85,-129.58"/>
<polygon fill="#2b2b2b" stroke="#2b2b2b" points="112.5,-132.67 119.79,-124.98 109.29,-126.45 112.5,-132.67"/>
</a>
</g>
<text text-anchor="middle" x="84.5" y="-158.8" font-family="Times,serif" font-size="14.00">call</text>
</g>
<!-- n4469 -->
<g id="node16" class="node">
<title>n4469</title>
<g id="a_node16"><a xlink:title="example.com/depusagetest.triangle">
<polygon fill="none" stroke="#484061" points="356.5,-63 283.5,-63 283.5,-27 356.5,-27 356.5,-63"/>
<text text-anchor="middle" x="320" y="-41.3" font-family="Times,serif" font-size="14.00">triangle</text>
</a>
</g>
</g>
<!-- n4460&#45;&gt;n4469 -->
<g id="edge13" class="edge">
<title>n4460&#45;&gt;n4469</title>
<g id="a_edge13"><a xlink:title="*t15 = triangle">
<path fill="none" stroke="#000000" d="M33.98,-191.63C44.31,-163.12 68.38,-108.79 109,-83 135.61,-66.1 219.62,-54.88 272.97,-49.25"/>
<polygon fill="#000000" stroke="#000000" points="273.62,-52.71 283.21,-48.2 272.9,-45.74 273.62,-52.71"/>
</a>
</g>
</g>
<!-- n4571 -->
<g id="node17" class="node">
<title>n4571</title>
<g id="a_node17"><a xlink:title="example.com/depusagetest.main$3">
<polygon fill="none" stroke="#6c3636" stroke-dasharray="5,2" points="190,-36 120,-36 120,0 190,0 190,-36"/>
<text text-anchor="middle" x="155" y="-14.3" font-family="Times,serif" font-size="14.00">main$3</text>
</a>
</g>
</g>
<!-- n4460&#45;&gt;n4571 -->
<g id="edge18" class="edge">
<title>n4460&#45;&gt;n4571</title>
<g id="a_edge18"><a xlink:title="example.com/depusagetest/something.Map[float32 float32](t46, main$3)">
<path fill="none" stroke="#000000" d="M27.95,-191.94C28.83,-159.46 35.26,-90.77 72,-50 81.96,-38.95 96.21,-31.67 110.04,-26.9"/>
<polygon fill="#000000" stroke="#000000" points="111.44,-30.13 119.97,-23.85 109.38,-23.44 111.44,-30.13"/>
</a>
</g>
</g>
<!-- n4462 -->
<g id="node9" class="node">
<title>n4462</title>
<g id="a_node9"><a xlink:title="example.com/depusagetest.worker$1">
<polygon fill="none" stroke="#6c3636" stroke-dasharray="5,2" points="362.5,-299 277.5,-299 277.5,-263 362.5,-263 362.5,-299"/>
<text text-anchor="middle" x="320" y="-277.3" font-family="Times,serif" font-size="14.00">worker$1</text>
</a>
</g>
</g>
<!-- n4461&#45;&gt;n4462 -->
<g id="edge7" class="edge">
<title>n4461&#45;&gt;n4462</title>
<g id="a_edge7"><a xlink:title="deferred defer t1()">
<path fill="none" stroke="#9467bd" stroke-dasharray="1,5" d="M188.59,-261C210.55,-264.37 240.02,-268.89 265.39,-272.78"/>
<polygon fill="#9467bd" stroke="#9467bd" points="265.6,-272.81 272.14,-269.77 277.47,-274.63 270.93,-277.67 265.6,-272.81"/>
</a>
</g>
<text text-anchor="middle" x="232" y="-273.8" font-family="Times,serif" font-size="14.00">defer</text>
</g>
<!-- n4461&#45;&gt;n4463 -->
<g id="edge8" class="edge">
<title>n4461&#45;&gt;n4463</title>
<g id="a_edge8"><a xlink:title="square(t4)">
<path fill="none" stroke="#2b2b2b" d="M188.59,-249.2C214.05,-243.89 249.61,-236.47 277.16,-230.73"/>
<polygon fill="#2b2b2b" stroke="#2b2b2b" points="278.22,-234.08 287.29,-228.61 276.79,-227.23 278.22,-234.08"/>
</a>
</g>
<text text-anchor="middle" x="232" y="-248.8" font-family="Times,serif" font-size="14.00">call</text>
</g>
<!-- n4464 -->
<g id="node11" class="node">
<title>n4464</title>
<g id="a_node11"><a xlink:title="example.com/depusagetest.mul">
<polygon fill="none" stroke="#484061" points="504,-240 450,-240 450,-204 504,-204 504,-240"/>
<text text-anchor="middle" x="477" y="-218.3" font-family="Times,serif" font-size="14.00">mul</text>
</a>
</g>
</g>
<!-- n4463&#45;&gt;n4464 -->
<g id="edge3" class="edge">
<title>n4463&#45;&gt;n4464</title>
<g id="a_edge3"><a xlink:title="mul(x, x)">
<path fill="none" stroke="#2b2b2b" d="M352.74,-222C377.96,-222 413.26,-222 439.62,-222"/>
<polygon fill="#2b2b2b" stroke="#2b2b2b" points="439.96,-225.5 449.96,-222 439.96,-218.5 439.96,-225.5"/>
</a>
</g>
<text text-anchor="middle" x="408.5" y="-225.8" font-family="Times,serif" font-size="14.00">call</text>
</g>
<!-- n4466 -->
<g id="node13" class="node">
<title>n4466</title>
<g id="a_node13"><a xlink:title="example.com/depusagetest.add">
<polygon fill="none" stroke="#484061" points="347,-182 293,-182 293,-146 347,-146 347,-182"/>
<text text-anchor="middle" x="320" y="-160.3" font-family="Times,serif" font-size="14.00">add</text>
</a>
</g>
</g>
<!-- n4465&#45;&gt;n4466 -->
<g id="edge9" class="edge">
<title>n4465&#45;&gt;n4466</title>
<g id="a_edge9"><a xlink:title="add(2:int, 3:int)">
<path fill="none" stroke="#2b2b2b" d="M190.17,-164C217.32,-164 255.2,-164 282.85,-164"/>
<polygon fill="#2b2b2b" stroke="#2b2b2b" points="282.91,-167.5 292.91,-164 282.91,-160.5 282.91,-167.5"/>
</a>
</g>
<text text-anchor="middle" x="232" y="-167.8" font-family="Times,serif" font-size="14.00">call</text>
</g>
<!-- n4468 -->
<g id="node15" class="node">
<title>n4468</title>
<g id="a_node15"><a xlink:title="example.com/depusagetest.maybePanic">
<polygon fill="none" stroke="#484061" points="371,-128 269,-128 269,-92 371,-92 371,-128"/>
<text text-anchor="middle" x="320" y="-106.3" font-family="Times,serif" font-size="14.00">maybePanic</text>
</a>
</g>
</g>
<!-- n4467&#45;&gt;n4468 -->
<g id="edge2" class="edge">
<title>n4467&#45;&gt;n4468</title>
<g id="a_edge2"><a xlink:title="maybePanic(v)">
<path fill="none" stroke="#2b2b2b" d="M190.17,-110C210.01,-110 235.58,-110 258.7,-110"/>
<polygon fill="#2b2b2b" stroke="#2b2b2b" points="258.78,-113.5 268.78,-110 258.78,-106.5 258.78,-113.5"/>
</a>
</g>
<text text-anchor="middle" x="232" y="-113.8" font-family="Times,serif" font-size="14.00">call</text>
</g>
<!-- panic_sink -->
<g id="node19" class="node">
<title>panic_sink</title>
<g id="a_node19"><a xlink:title="panic_sink">
<polygon fill="#722f37" stroke="#722f37" points="508,-128 446,-128 446,-92 508,-92 508,-128"/>
<text text-anchor="middle" x="477" y="-106.3" font-family="Times,serif" font-size="14.00" fill="white">PANIC</text>
</a>
</g>
</g>
<!-- n4468&#45;&gt;panic_sink -->
<g id="edge1" class="edge">
<title>n4468&#45;&gt;panic_sink</title>
<g id="a_edge1"><a xlink:title="panic t1">
<path fill="none" stroke="#722f37" stroke-width="2" d="M371.32,-110C393.98,-110 420.18,-110 440.7,-110"/>
<polygon fill="#722f37" stroke="#722f37" stroke-width="2" points="444.79,-105 444.79,-115 442.79,-115 442.79,-105 444.79,-105"/>
<polyline fill="none" stroke="#722f37" stroke-width="2" points="445.79,-110 440.79,-110 "/>
</a>
</g>
<text text-anchor="middle" x="408.5" y="-113.8" font-family="Times,serif" font-size="14.00">panic</text>
</g>
<!-- n4571&#45;&gt;n4469 -->
<g id="edge6" class="edge">
<title>n4571&#45;&gt;n4469</title>
<g id="a_edge6"><a xlink:title="triangle(h, 3:float32)">
<path fill="none" stroke="#2b2b2b" d="M190.17,-23.66C214.32,-27.66 246.95,-33.06 273.33,-37.43"/>
<polygon fill="#2b2b2b" stroke="#2b2b2b" points="273.03,-40.93 283.47,-39.11 274.17,-34.03 273.03,-40.93"/>
</a>
</g>
<text text-anchor="middle" x="232" y="-37.8" font-family="Times,serif" font-size="14.00">call</text>
</g>
<!-- n4572 -->
<g id="node18" class="node">
<title>n4572</title>
<g id="a_node18"><a xlink:title="example.com/depusagetest.init">
<polygon fill="none" stroke="#484061" points="54,-504 0,-504 0,-468 54,-468 54,-504"/>
<text text-anchor="middle" x="27" y="-482.3" font-family="Times,serif" font-size="14.00">init</text>
</a>
</g>
</g>
<!-- n4572&#45;&gt;ext_4577 -->
<g id="edge5" class="edge">
<title>n4572&#45;&gt;ext_4577</title>
<g id="a_edge5"><a xlink:title="example.com/depusagetest/something.init()">
<path fill="none" stroke="#2b2b2b" d="M54.11,-500.3C72.86,-510.57 98.35,-524.52 118.88,-535.77"/>
<polygon fill="#2b2b2b" stroke="#2b2b2b" points="117.47,-538.99 127.93,-540.72 120.84,-532.85 117.47,-538.99"/>
</a>
</g>
<text text-anchor="middle" x="84.5" y="-525.8" font-family="Times,serif" font-size="14.00">call</text>
</g>
<!-- n4572&#45;&gt;ext_4573 -->
<g id="edge4" class="edge">
<title>n4572&#45;&gt;ext_4573</title>
<g id="a_edge4"><a xlink:title="fmt.init()">
<path fill="none" stroke="#2b2b2b" d="M48.15,-467.96C55.35,-462.07 63.73,-455.81 72,-451 86.44,-442.59 103.43,-435.37 118.19,-429.84"/>
<polygon fill="#2b2b2b" stroke="#2b2b2b" points="119.78,-432.99 127.99,-426.29 117.39,-426.4 119.78,-432.99"/>
</a>
</g>
<text text-anchor="middle" x="84.5" y="-454.8" font-family="Times,serif" font-size="14.00">call</text>
</g>
</g>
</svg>
