<?xml version="1.0" encoding="UTF-8" standalone="no"?>
<!DOCTYPE svg PUBLIC "-//W3C//DTD SVG 1.1//EN"
 "http://www.w3.org/Graphics/SVG/1.1/DTD/svg11.dtd">
<!-- Generated by graphviz version 2.43.0 (0)
 -->
<!-- Pages: 1 -->
<svg width="231pt" height="98pt"
 viewBox="0.00 0.00 231.00 98.00" xmlns="http://www.w3.org/2000/svg" xmlns:xlink="http://www.w3.org/1999/xlink">
<g id="graph0" class="graph" transform="scale(1 1) rotate(0) translate(4 94)">
<polygon fill="white" stroke="transparent" points="-4,4 -4,-94 227,-94 227,4 -4,4"/>
<!-- n1 -->
<g id="node1" class="node">
<title>n1</title>
<g id="a_node1"><a xlink:title="example.com/depusagetest/something.init">
<polygon fill="none" stroke="#484061" points="54,-36 0,-36 0,0 54,0 54,-36"/>
<text text-anchor="middle" x="27" y="-14.3" font-family="Times,serif" font-size="14.00">init</text>
</a>
</g>
</g>
<!-- n12 -->
<g id="node2" class="node">
<title>n12</title>
<g id="a_node2"><a xlink:title="(*example.com/depusagetest/something.Bob).Ping">
<polygon fill="none" stroke="#484061" points="54,-90 0,-90 0,-54 54,-54 54,-90"/>
<text text-anchor="middle" x="27" y="-68.3" font-family="Times,serif" font-size="14.00">Ping</text>
</a>
</g>
</g>
<!-- n13 -->
<g id="node3" class="node">
<title>n13</title>
<g id="a_node3"><a xlink:title="(*example.com/depusagetest/something.Bob).DoingAThing">
<polygon fill="none" stroke="#484061" points="223,-90 115,-90 115,-54 223,-54 223,-90"/>
<text text-anchor="middle" x="169" y="-68.3" font-family="Times,serif" font-size="14.00">DoingAThing</text>
</a>
</g>
</g>
<!-- n12&#45;&gt;n13 -->
<g id="edge1" class="edge">
<title>n12&#45;&gt;n13</title>
<g id="a_edge1"><a xlink:title="(*Bob).DoingAThing(b)">
<path fill="none" stroke="#2b2b2b" d="M54,-72C68.28,-72 86.67,-72 104.49,-72"/>
<polygon fill="#2b2b2b" stroke="#2b2b2b" points="104.88,-75.5 114.88,-72 104.88,-68.5 104.88,-75.5"/>
</a>
</g>
<text text-anchor="middle" x="84.5" y="-75.8" font-family="Times,serif" font-size="14.00">call</text>
</g>
</g>
</svg>
