<?xml version="1.0" encoding="UTF-8" standalone="no"?>
<!DOCTYPE svg PUBLIC "-//W3C//DTD SVG 1.1//EN"
 "http://www.w3.org/Graphics/SVG/1.1/DTD/svg11.dtd">
<!-- Generated by graphviz version 2.43.0 (0)
 -->
<!-- Pages: 1 -->
<svg width="207pt" height="152pt"
 viewBox="0.00 0.00 207.00 152.00" xmlns="http://www.w3.org/2000/svg" xmlns:xlink="http://www.w3.org/1999/xlink">
<g id="graph0" class="graph" transform="scale(1 1) rotate(0) translate(4 148)">
<polygon fill="white" stroke="transparent" points="-4,4 -4,-148 203,-148 203,4 -4,4"/>
<!-- n1 -->
<g id="node1" class="node">
<title>n1</title>
<g id="a_node1"><a xlink:title="example.com/depusagetest.init">
<polygon fill="none" stroke="#484061" points="72,-36 18,-36 18,0 72,0 72,-36"/>
<text text-anchor="middle" x="45" y="-14.3" font-family="Times,serif" font-size="14.00">init</text>
</a>
</g>
</g>
<!-- n2 -->
<g id="node2" class="node">
<title>n2</title>
<g id="a_node2"><a xlink:title="example.com/depusagetest.triangle">
<polygon fill="none" stroke="#484061" points="199,-117 126,-117 126,-81 199,-81 199,-117"/>
<text text-anchor="middle" x="162.5" y="-95.3" font-family="Times,serif" font-size="14.00">triangle</text>
</a>
</g>
</g>
<!-- n3 -->
<g id="node3" class="node">
<title>n3</title>
<g id="a_node3"><a xlink:title="example.com/depusagetest.callOthers">
<polygon fill="none" stroke="#484061" points="90,-144 0,-144 0,-108 90,-108 90,-144"/>
<text text-anchor="middle" x="45" y="-122.3" font-family="Times,serif" font-size="14.00">callOthers</text>
</a>
</g>
</g>
<!-- n3&#45;&gt;n2 -->
<g id="edge1" class="edge">
<title>n3&#45;&gt;n2</title>
<g id="a_edge1"><a xlink:title="return triangle">
<path fill="none" stroke="#000000" d="M90.32,-115.64C98.65,-113.69 107.36,-111.66 115.73,-109.7"/>
<polygon fill="#000000" stroke="#000000" points="116.77,-113.05 125.71,-107.37 115.17,-106.24 116.77,-113.05"/>
</a>
</g>
</g>
<!-- n4 -->
<g id="node4" class="node">
<title>n4</title>
<g id="a_node4"><a xlink:title="example.com/depusagetest.main">
<polygon fill="none" stroke="#484061" points="72,-90 18,-90 18,-54 72,-54 72,-90"/>
<text text-anchor="middle" x="45" y="-68.3" font-family="Times,serif" font-size="14.00">main</text>
</a>
</g>
</g>
<!-- n4&#45;&gt;n2 -->
<g id="edge2" class="edge">
<title>n4&#45;&gt;n2</title>
<g id="a_edge2"><a xlink:title="*storedFn = triangle">
<path fill="none" stroke="#000000" d="M72.21,-78.13C85.08,-81.14 100.96,-84.85 115.75,-88.31"/>
<polygon fill="#000000" stroke="#000000" points="115.23,-91.78 125.76,-90.65 116.82,-84.96 115.23,-91.78"/>
</a>
</g>
</g>
</g>
</svg>
