<?xml version="1.0" encoding="UTF-8" standalone="no"?>
<!DOCTYPE svg PUBLIC "-//W3C//DTD SVG 1.1//EN"
 "http://www.w3.org/Graphics/SVG/1.1/DTD/svg11.dtd">
<!-- Generated by graphviz version 2.43.0 (0)
 -->
<!-- Pages: 1 -->
<svg width="231pt" height="189pt"
 viewBox="0.00 0.00 231.00 189.00" xmlns="http://www.w3.org/2000/svg" xmlns:xlink="http://www.w3.org/1999/xlink">
<g id="graph0" class="graph" transform="scale(1 1) rotate(0) translate(4 185)">
<polygon fill="white" stroke="transparent" points="-4,4 -4,-185 227,-185 227,4 -4,4"/>
<g id="clust1" class="cluster">
<title>cluster_fmt</title>
<g id="a_clust1"><a xlink:title="fmt">
<polygon fill="#ebc38b" stroke="#af7a2e" points="132,-8 132,-137 206,-137 206,-8 132,-8"/>
<text text-anchor="middle" x="169" y="-121.8" font-family="Times,serif" font-size="14.00">fmt</text>
</a>
</g>
</g>
<!-- ext_4928 -->
<g id="node1" class="node">
<title>ext_4928</title>
<g id="a_node1"><a xlink:title="fmt.Printf">
<polygon fill="#f5e6c8" stroke="#444444" points="198,-106 140,-106 140,-70 198,-70 198,-106"/>
<text text-anchor="middle" x="169" y="-84.3" font-family="Times,serif" font-size="14.00">Printf</text>
</a>
</g>
</g>
<!-- ext_903 -->
<g id="node2" class="node">
<title>ext_903</title>
<g id="a_node2"><a xlink:title="fmt.init">
<polygon fill="#f5e6c8" stroke="#444444" points="196,-52 142,-52 142,-16 196,-16 196,-52"/>
<text text-anchor="middle" x="169" y="-30.3" font-family="Times,serif" font-size="14.00">init</text>
</a>
</g>
</g>
<!-- n4926 -->
<g id="node3" class="node">
<title>n4926</title>
<g id="a_node3"><a xlink:title="(*example.com/depusagetest/something.Bob).Ping">
<polygon fill="none" stroke="#484061" points="54,-143 0,-143 0,-107 54,-107 54,-143"/>
<text text-anchor="middle" x="27" y="-121.3" font-family="Times,serif" font-size="14.00">Ping</text>
</a>
</g>
</g>
<!-- n4926&#45;&gt;ext_4928 -->
<g id="edge2" class="edge">
<title>n4926&#45;&gt;ext_4928</title>
<g id="a_edge2"><a xlink:title="fmt.Printf(&quot;Hello&quot;:string, nil:[]any...)">
<path fill="none" stroke="#2b2b2b" d="M54,-118.13C75.32,-112.5 105.78,-104.44 129.85,-98.08"/>
<polygon fill="#2b2b2b" stroke="#2b2b2b" points="130.96,-101.41 139.73,-95.47 129.17,-94.64 130.96,-101.41"/>
</a>
</g>
<text text-anchor="middle" x="84.5" y="-116.8" font-family="Times,serif" font-size="14.00">call</text>
</g>
<!-- n4927 -->
<g id="node4" class="node">
<title>n4927</title>
<g id="a_node4"><a xlink:title="(*example.com/depusagetest/something.Bob).DoingAThing">
<polygon fill="none" stroke="#484061" points="223,-181 115,-181 115,-145 223,-145 223,-181"/>
<text text-anchor="middle" x="169" y="-159.3" font-family="Times,serif" font-size="14.00">DoingAThing</text>
</a>
</g>
</g>
<!-- n4926&#45;&gt;n4927 -->
<g id="edge1" class="edge">
<title>n4926&#45;&gt;n4927</title>
<g id="a_edge1"><a xlink:title="(*Bob).DoingAThing(b)">
<path fill="none" stroke="#2b2b2b" d="M54,-132.06C68.42,-135.97 87.01,-141.02 104.99,-145.9"/>
<polygon fill="#2b2b2b" stroke="#2b2b2b" points="104.31,-149.34 114.88,-148.58 106.14,-142.58 104.31,-149.34"/>
</a>
</g>
<text text-anchor="middle" x="84.5" y="-145.8" font-family="Times,serif" font-size="14.00">call</text>
</g>
<!-- n902 -->
<g id="node5" class="node">
<title>n902</title>
<g id="a_node5"><a xlink:title="example.com/depusagetest/something.init">
<polygon fill="none" stroke="#484061" points="54,-52 0,-52 0,-16 54,-16 54,-52"/>
<text text-anchor="middle" x="27" y="-30.3" font-family="Times,serif" font-size="14.00">init</text>
</a>
</g>
</g>
<!-- n902&#45;&gt;ext_903 -->
<g id="edge3" class="edge">
<title>n902&#45;&gt;ext_903</title>
<g id="a_edge3"><a xlink:title="fmt.init()">
<path fill="none" stroke="#2b2b2b" d="M54,-34C75.77,-34 107.08,-34 131.38,-34"/>
<polygon fill="#2b2b2b" stroke="#2b2b2b" points="131.66,-37.5 141.66,-34 131.66,-30.5 131.66,-37.5"/>
</a>
</g>
<text text-anchor="middle" x="84.5" y="-37.8" font-family="Times,serif" font-size="14.00">call</text>
</g>
</g>
</svg>
