<?xml version="1.0" encoding="UTF-8" standalone="no"?>
<!DOCTYPE svg PUBLIC "-//W3C//DTD SVG 1.1//EN"
 "http://www.w3.org/Graphics/SVG/1.1/DTD/svg11.dtd">
<!-- Generated by graphviz version 2.43.0 (0)
 -->
<!-- Pages: 1 -->
<svg width="506pt" height="299pt"
 viewBox="0.00 0.00 506.00 299.00" xmlns="http://www.w3.org/2000/svg" xmlns:xlink="http://www.w3.org/1999/xlink">
<g id="graph0" class="graph" transform="scale(1 1) rotate(0) translate(4 295)">
<polygon fill="white" stroke="transparent" points="-4,4 -4,-295 502,-295 502,4 -4,4"/>
<g id="clust1" class="cluster">
<title>cluster_example.com/depusagetest/something</title>
<g id="a_clust1"><a xlink:title="example.com/depusagetest/something">
<polygon fill="#ebc38b" stroke="#af7a2e" points="115,-154 115,-283 207,-283 207,-154 115,-154"/>
<text text-anchor="middle" x="161" y="-267.8" font-family="Times,serif" font-size="14.00">something</text>
</a>
</g>
</g>
<!-- ext_902 -->
<g id="node1" class="node">
<title>ext_902</title>
<g id="a_node1"><a xlink:title="example.com/depusagetest/something.init">
<polygon fill="#f5e6c8" stroke="#444444" points="188,-252 134,-252 134,-216 188,-216 188,-252"/>
<text text-anchor="middle" x="161" y="-230.3" font-family="Times,serif" font-size="14.00">init</text>
</a>
</g>
</g>
<!-- ext_4926 -->
<g id="node2" class="node">
<title>ext_4926</title>
<g id="a_node2"><a xlink:title="(*example.com/depusagetest/something.Bob).Ping">
<polygon fill="#f5e6c8" stroke="#444444" points="188,-198 134,-198 134,-162 188,-162 188,-198"/>
<text text-anchor="middle" x="161" y="-176.3" font-family="Times,serif" font-size="14.00">Ping</text>
</a>
</g>
</g>
<!-- n4917 -->
<g id="node3" class="node">
<title>n4917</title>
<g id="a_node3"><a xlink:title="example.com/depusagetest.mul">
<polygon fill="none" stroke="#484061" points="498,-198 444,-198 444,-162 498,-162 498,-198"/>
<text text-anchor="middle" x="471" y="-176.3" font-family="Times,serif" font-size="14.00">mul</text>
</a>
</g>
</g>
<!-- n4918 -->
<g id="node4" class="node">
<title>n4918</title>
<g id="a_node4"><a xlink:title="example.com/depusagetest.square">
<polygon fill="none" stroke="#484061" points="364.5,-198 299.5,-198 299.5,-162 364.5,-162 364.5,-198"/>
<text text-anchor="middle" x="332" y="-176.3" font-family="Times,serif" font-size="14.00">square</text>
</a>
</g>
</g>
<!-- n4918&#45;&gt;n4917 -->
<g id="edge10" class="edge">
<title>n4918&#45;&gt;n4917</title>
<g id="a_edge10"><a xlink:title="mul(x, x)">
<path fill="none" stroke="#2b2b2b" d="M364.77,-180C385.43,-180 412.4,-180 433.86,-180"/>
<polygon fill="#2b2b2b" stroke="#2b2b2b" points="433.91,-183.5 443.91,-180 433.91,-176.5 433.91,-183.5"/>
</a>
</g>
<text text-anchor="middle" x="413.5" y="-183.8" font-family="Times,serif" font-size="14.00">call</text>
</g>
<!-- n4919 -->
<g id="node5" class="node">
<title>n4919</title>
<g id="a_node5"><a xlink:title="example.com/depusagetest.worker">
<polygon fill="none" stroke="#484061" points="194.5,-144 127.5,-144 127.5,-108 194.5,-108 194.5,-144"/>
<text text-anchor="middle" x="161" y="-122.3" font-family="Times,serif" font-size="14.00">worker</text>
</a>
</g>
</g>
<!-- n4919&#45;&gt;n4918 -->
<g id="edge2" class="edge">
<title>n4919&#45;&gt;n4918</title>
<g id="a_edge2"><a xlink:title="square(t4)">
<path fill="none" stroke="#2b2b2b" d="M194.58,-136.41C221.73,-145.09 260.55,-157.49 289.84,-166.85"/>
<polygon fill="#2b2b2b" stroke="#2b2b2b" points="288.78,-170.18 299.37,-169.89 290.91,-163.52 288.78,-170.18"/>
</a>
</g>
<text text-anchor="middle" x="244" y="-160.8" font-family="Times,serif" font-size="14.00">call</text>
</g>
<!-- n4920 -->
<g id="node6" class="node">
<title>n4920</title>
<g id="a_node6"><a xlink:title="example.com/depusagetest.worker$1">
<polygon fill="none" stroke="#6c3636" stroke-dasharray="5,2" points="374.5,-144 289.5,-144 289.5,-108 374.5,-108 374.5,-144"/>
<text text-anchor="middle" x="332" y="-122.3" font-family="Times,serif" font-size="14.00">worker$1</text>
</a>
</g>
</g>
<!-- n4919&#45;&gt;n4920 -->
<g id="edge1" class="edge">
<title>n4919&#45;&gt;n4920</title>
<g id="a_edge1"><a xlink:title="deferred defer t1()">
<path fill="none" stroke="#9467bd" stroke-dasharray="1,5" d="M194.58,-126C217.96,-126 249.98,-126 277.13,-126"/>
<polygon fill="#9467bd" stroke="#9467bd" points="277.21,-126 283.21,-122 289.21,-126 283.21,-130 277.21,-126"/>
</a>
</g>
<text text-anchor="middle" x="244" y="-129.8" font-family="Times,serif" font-size="14.00">defer</text>
</g>
<!-- n4921 -->
<g id="node7" class="node">
<title>n4921</title>
<g id="a_node7"><a xlink:title="example.com/depusagetest.maybePanic">
<polygon fill="none" stroke="#484061" points="383,-36 281,-36 281,0 383,0 383,-36"/>
<text text-anchor="middle" x="332" y="-14.3" font-family="Times,serif" font-size="14.00">maybePanic</text>
</a>
</g>
</g>
<!-- n4922 -->
<g id="node8" class="node">
<title>n4922</title>
<g id="a_node8"><a xlink:title="example.com/depusagetest.main">
<polygon fill="none" stroke="#484061" points="54,-109 0,-109 0,-73 54,-73 54,-109"/>
<text text-anchor="middle" x="27" y="-87.3" font-family="Times,serif" font-size="14.00">main</text>
</a>
</g>
</g>
<!-- n4922&#45;&gt;ext_4926 -->
<g id="edge8" class="edge">
<title>n4922&#45;&gt;ext_4926</title>
<g id="a_edge8"><a xlink:title="(*example.com/depusagetest/something.Bob).Ping(t14)">
<path fill="none" stroke="#2b2b2b" d="M48.03,-109.05C55.36,-115.32 63.86,-122.23 72,-128 88.86,-139.95 108.59,-151.78 125.09,-161.14"/>
<polygon fill="#2b2b2b" stroke="#2b2b2b" points="123.45,-164.23 133.88,-166.06 126.87,-158.12 123.45,-164.23"/>
</a>
</g>
<text text-anchor="middle" x="84.5" y="-147.8" font-family="Times,serif" font-size="14.00">call</text>
</g>
<!-- n4922&#45;&gt;n4919 -->
<g id="edge5" class="edge">
<title>n4922&#45;&gt;n4919</title>
<g id="a_edge5"><a xlink:title="concurrent go worker(1:int, t4, t5)">
<path fill="none" stroke="#1f77b4" stroke-dasharray="5,2" d="M54.08,-97.91C72.73,-102.86 98.2,-109.61 119.49,-115.26"/>
<ellipse fill="#1f77b4" stroke="#1f77b4" cx="123.56" cy="-116.34" rx="4" ry="4"/>
</a>
</g>
<text text-anchor="middle" x="84.5" y="-112.8" font-family="Times,serif" font-size="14.00">go</text>
</g>
<!-- n4923 -->
<g id="node9" class="node">
<title>n4923</title>
<g id="a_node9"><a xlink:title="example.com/depusagetest.main$1">
<polygon fill="none" stroke="#6c3636" stroke-dasharray="5,2" points="196,-90 126,-90 126,-54 196,-54 196,-90"/>
<text text-anchor="middle" x="161" y="-68.3" font-family="Times,serif" font-size="14.00">main$1</text>
</a>
</g>
</g>
<!-- n4922&#45;&gt;n4923 -->
<g id="edge6" class="edge">
<title>n4922&#45;&gt;n4923</title>
<g id="a_edge6"><a xlink:title="concurrent go t9()">
<path fill="none" stroke="#1f77b4" stroke-dasharray="5,2" d="M54.42,-84.45C60.19,-83.17 66.28,-81.94 72,-81 86.7,-78.59 102.88,-76.71 117.33,-75.31"/>
<ellipse fill="#1f77b4" stroke="#1f77b4" cx="121.62" cy="-74.91" rx="4" ry="4"/>
</a>
</g>
<text text-anchor="middle" x="84.5" y="-84.8" font-family="Times,serif" font-size="14.00">go</text>
</g>
<!-- n4925 -->
<g id="node11" class="node">
<title>n4925</title>
<g id="a_node11"><a xlink:title="example.com/depusagetest.main$2">
<polygon fill="none" stroke="#6c3636" stroke-dasharray="5,2" points="196,-36 126,-36 126,0 196,0 196,-36"/>
<text text-anchor="middle" x="161" y="-14.3" font-family="Times,serif" font-size="14.00">main$2</text>
</a>
</g>
</g>
<!-- n4922&#45;&gt;n4925 -->
<g id="edge7" class="edge">
<title>n4922&#45;&gt;n4925</title>
<g id="a_edge7"><a xlink:title="main$2(t12)">
<path fill="none" stroke="#2b2b2b" d="M51.18,-72.86C57.74,-68.09 65,-63.12 72,-59 86.06,-50.72 102.06,-42.84 116.54,-36.24"/>
<polygon fill="#2b2b2b" stroke="#2b2b2b" points="118.1,-39.38 125.79,-32.1 115.24,-32.99 118.1,-39.38"/>
</a>
</g>
<text text-anchor="middle" x="84.5" y="-62.8" font-family="Times,serif" font-size="14.00">call</text>
</g>
<!-- n4924 -->
<g id="node10" class="node">
<title>n4924</title>
<g id="a_node10"><a xlink:title="example.com/depusagetest.add">
<polygon fill="none" stroke="#484061" points="359,-90 305,-90 305,-54 359,-54 359,-90"/>
<text text-anchor="middle" x="332" y="-68.3" font-family="Times,serif" font-size="14.00">add</text>
</a>
</g>
</g>
<!-- n4923&#45;&gt;n4924 -->
<g id="edge3" class="edge">
<title>n4923&#45;&gt;n4924</title>
<g id="a_edge3"><a xlink:title="add(2:int, 3:int)">
<path fill="none" stroke="#2b2b2b" d="M196.2,-72C224.8,-72 265.5,-72 294.68,-72"/>
<polygon fill="#2b2b2b" stroke="#2b2b2b" points="294.87,-75.5 304.87,-72 294.87,-68.5 294.87,-75.5"/>
</a>
</g>
<text text-anchor="middle" x="244" y="-75.8" font-family="Times,serif" font-size="14.00">call</text>
</g>
<!-- n4925&#45;&gt;n4921 -->
<g id="edge9" class="edge">
<title>n4925&#45;&gt;n4921</title>
<g id="a_edge9"><a xlink:title="maybePanic(v)">
<path fill="none" stroke="#2b2b2b" d="M196.2,-18C217.56,-18 245.67,-18 270.68,-18"/>
<polygon fill="#2b2b2b" stroke="#2b2b2b" points="270.82,-21.5 280.82,-18 270.82,-14.5 270.82,-21.5"/>
</a>
</g>
<text text-anchor="middle" x="244" y="-21.8" font-family="Times,serif" font-size="14.00">call</text>
</g>
<!-- n4981 -->
<g id="node12" class="node">
<title>n4981</title>
<g id="a_node12"><a xlink:title="example.com/depusagetest.init">
<polygon fill="none" stroke="#484061" points="54,-252 0,-252 0,-216 54,-216 54,-252"/>
<text text-anchor="middle" x="27" y="-230.3" font-family="Times,serif" font-size="14.00">init</text>
</a>
</g>
</g>
<!-- n4981&#45;&gt;ext_902 -->
<g id="edge4" class="edge">
<title>n4981&#45;&gt;ext_902</title>
<g id="a_edge4"><a xlink:title="example.com/depusagetest/something.init()">
<path fill="none" stroke="#2b2b2b" d="M54.08,-234C74.06,-234 101.85,-234 123.95,-234"/>
<polygon fill="#2b2b2b" stroke="#2b2b2b" points="123.98,-237.5 133.98,-234 123.98,-230.5 123.98,-237.5"/>
</a>
</g>
<text text-anchor="middle" x="84.5" y="-237.8" font-family="Times,serif" font-size="14.00">call</text>
</g>
</g>
</svg>
