<?xml version="1.0" encoding="UTF-8" standalone="no"?>
<!DOCTYPE svg PUBLIC "-//W3C//DTD SVG 1.1//EN"
 "http://www.w3.org/Graphics/SVG/1.1/DTD/svg11.dtd">
<!-- Generated by graphviz version 2.43.0 (0)
 -->
<!-- Pages: 1 -->
<svg width="231pt" height="191pt"
 viewBox="0.00 0.00 231.00 191.00" xmlns="http://www.w3.org/2000/svg" xmlns:xlink="http://www.w3.org/1999/xlink">
<g id="graph0" class="graph" transform="scale(1 1) rotate(0) translate(4 187)">
<polygon fill="white" stroke="transparent" points="-4,4 -4,-187 227,-187 227,4 -4,4"/>
<g id="clust1" class="cluster">
<title>cluster_fmt</title>
<g id="a_clust1"><a xlink:title="fmt">
<polygon fill="#ebc38b" stroke="#af7a2e" points="132,-46 132,-175 206,-175 206,-46 132,-46"/>
<text text-anchor="middle" x="169" y="-159.8" font-family="Times,serif" font-size="14.00">fmt</text>
</a>
</g>
</g>
<!-- ext_5128 -->
<g id="node1" class="node">
<title>ext_5128</title>
<g id="a_node1"><a xlink:title="fmt.Printf">
<polygon fill="#f5e6c8" stroke="#444444" points="198,-90 140,-90 140,-54 198,-54 198,-90"/>
<text text-anchor="middle" x="169" y="-68.3" font-family="Times,serif" font-size="14.00">Printf</text>
</a>
</g>
</g>
<!-- ext_4219 -->
<g id="node2" class="node">
<title>ext_4219</title>
<g id="a_node2"><a xlink:title="fmt.init">
<polygon fill="#f5e6c8" stroke="#444444" points="196,-144 142,-144 142,-108 196,-108 196,-144"/>
<text text-anchor="middle" x="169" y="-122.3" font-family="Times,serif" font-size="14.00">init</text>
</a>
</g>
</g>
<!-- n4218 -->
<g id="node3" class="node">
<title>n4218</title>
<g id="a_node3"><a xlink:title="example.com/depusagetest/something.init">
<polygon fill="none" stroke="#484061" points="54,-144 0,-144 0,-108 54,-108 54,-144"/>
<text text-anchor="middle" x="27" y="-122.3" font-family="Times,serif" font-size="14.00">init</text>
</a>
</g>
</g>
<!-- n4218&#45;&gt;ext_4219 -->
<g id="edge3" class="edge">
<title>n4218&#45;&gt;ext_4219</title>
<g id="a_edge3"><a xlink:title="fmt.init()">
<path fill="none" stroke="#2b2b2b" d="M54,-126C75.77,-126 107.08,-126 131.38,-126"/>
<polygon fill="#2b2b2b" stroke="#2b2b2b" points="131.66,-129.5 141.66,-126 131.66,-122.5 131.66,-129.5"/>
</a>
</g>
<text text-anchor="middle" x="84.5" y="-129.8" font-family="Times,serif" font-size="14.00">call</text>
</g>
<!-- n5126 -->
<g id="node4" class="node">
<title>n5126</title>
<g id="a_node4"><a xlink:title="(*example.com/depusagetest/something.Bob).Ping">
<polygon fill="none" stroke="#484061" points="54,-63 0,-63 0,-27 54,-27 54,-63"/>
<text text-anchor="middle" x="27" y="-41.3" font-family="Times,serif" font-size="14.00">Ping</text>
</a>
</g>
</g>
<!-- n5126&#45;&gt;ext_5128 -->
<g id="edge2" class="edge">
<title>n5126&#45;&gt;ext_5128</title>
<g id="a_edge2"><a xlink:title="fmt.Printf(&quot;Hello&quot;:string, nil:[]any...)">
<path fill="none" stroke="#2b2b2b" d="M54,-50.02C75.32,-54.13 105.78,-60 129.85,-64.64"/>
<polygon fill="#2b2b2b" stroke="#2b2b2b" points="129.25,-68.09 139.73,-66.55 130.57,-61.22 129.25,-68.09"/>
</a>
</g>
<text text-anchor="middle" x="84.5" y="-60.8" font-family="Times,serif" font-size="14.00">call</text>
</g>
<!-- n5127 -->
<g id="node5" class="node">
<title>n5127</title>
<g id="a_node5"><a xlink:title="(*example.com/depusagetest/something.Bob).DoingAThing">
<polygon fill="none" stroke="#484061" points="223,-36 115,-36 115,0 223,0 223,-36"/>
<text text-anchor="middle" x="169" y="-14.3" font-family="Times,serif" font-size="14.00">DoingAThing</text>
</a>
</g>
</g>
<!-- n5126&#45;&gt;n5127 -->
<g id="edge1" class="edge">
<title>n5126&#45;&gt;n5127</title>
<g id="a_edge1"><a xlink:title="(*Bob).DoingAThing(b)">
<path fill="none" stroke="#2b2b2b" d="M54.1,-32.85C59.89,-30.58 66.07,-28.46 72,-27 82.45,-24.43 93.72,-22.59 104.72,-21.26"/>
<polygon fill="#2b2b2b" stroke="#2b2b2b" points="105.15,-24.74 114.72,-20.19 104.4,-17.78 105.15,-24.74"/>
</a>
</g>
<text text-anchor="middle" x="84.5" y="-30.8" font-family="Times,serif" font-size="14.00">call</text>
</g>
</g>
</svg>
