<?xml version="1.0" encoding="UTF-8" standalone="no"?>
<!DOCTYPE svg PUBLIC "-//W3C//DTD SVG 1.1//EN"
 "http://www.w3.org/Graphics/SVG/1.1/DTD/svg11.dtd">
<!-- Generated by graphviz version 2.43.0 (0)
 -->
<!-- Pages: 1 -->
<svg width="516pt" height="652pt"
 viewBox="0.00 0.00 516.00 651.52" xmlns="http://www.w3.org/2000/svg" xmlns:xlink="http://www.w3.org/1999/xlink">
<g id="graph0" class="graph" transform="scale(1 1) rotate(0) translate(4 647.52)">
<polygon fill="white" stroke="transparent" points="-4,4 -4,-647.52 512,-647.52 512,4 -4,4"/>
<g id="clust1" class="cluster">
<title>cluster_example.com/depusagetest/something</title>
<g id="a_clust1"><a xlink:title="example.com/depusagetest/something">
<polygon fill="#ebc38b" stroke="#af7a2e" points="109,-506.52 109,-635.52 201,-635.52 201,-506.52 109,-506.52"/>
<text text-anchor="middle" x="155" y="-620.32" font-family="Times,serif" font-size="14.00">something</text>
</a>
</g>
</g>
<g id="clust2" class="cluster">
<title>cluster_fmt</title>
<g id="a_clust2"><a xlink:title="fmt">
<polygon fill="#ebc38b" stroke="#af7a2e" points="114,-315.52 114,-498.52 196,-498.52 196,-315.52 114,-315.52"/>
<text text-anchor="middle" x="155" y="-483.32" font-family="Times,serif" font-size="14.00">fmt</text>
</a>
</g>
</g>
<!-- ext_2364 -->
<g id="node1" class="node">
<title>ext_2364</title>
<g id="a_node1"><a xlink:href="pkg://example.com/depusagetest/something" xlink:title="example.com/depusagetest/something.init">
<polygon fill="#f5e6c8" stroke="#444444" points="182,-604.52 128,-604.52 128,-568.52 182,-568.52 182,-604.52"/>
<text text-anchor="middle" x="155" y="-582.82" font-family="Times,serif" font-size="14.00">init</text>
</a>
</g>
</g>
<!-- ext_2376 -->
<g id="node2" class="node">
<title>ext_2376</title>
<g id="a_node2"><a xlink:href="pkg://example.com/depusagetest/something" xlink:title="example.com/depusagetest/something.Map">
<polygon fill="#f5e6c8" stroke="#444444" points="182,-550.52 128,-550.52 128,-514.52 182,-514.52 182,-550.52"/>
<text text-anchor="middle" x="155" y="-528.82" font-family="Times,serif" font-size="14.00">Map</text>
</a>
</g>
</g>
<!-- ext_1704 -->
<g id="node3" class="node">
<title>ext_1704</title>
<g id="a_node3"><a xlink:href="pkg://fmt" xlink:title="fmt.Println">
<polygon fill="#f5e6c8" stroke="#444444" points="188,-413.52 122,-413.52 122,-377.52 188,-377.52 188,-413.52"/>
<text text-anchor="middle" x="155" y="-391.82" font-family="Times,serif" font-size="14.00">Println</text>
</a>
</g>
</g>
<!-- ext_1570 -->
<g id="node4" class="node">
<title>ext_1570</title>
<g id="a_node4"><a xlink:href="pkg://fmt" xlink:title="fmt.Printf">
<polygon fill="#f5e6c8" stroke="#444444" points="184,-359.52 126,-359.52 126,-323.52 184,-323.52 184,-359.52"/>
<text text-anchor="middle" x="155" y="-337.82" font-family="Times,serif" font-size="14.00">Printf</text>
</a>
</g>
</g>
<!-- ext_1743 -->
<g id="node5" class="node">
<title>ext_1743</title>
<g id="a_node5"><a xlink:href="pkg://fmt" xlink:title="fmt.init">
<polygon fill="#f5e6c8" stroke="#444444" points="182,-467.52 128,-467.52 128,-431.52 182,-431.52 182,-467.52"/>
<text text-anchor="middle" x="155" y="-445.82" font-family="Times,serif" font-size="14.00">init</text>
</a>
</g>
</g>
<!-- n2363 -->
<g id="node6" class="node">
<title>n2363</title>
<g id="a_node6"><a xlink:title="example.com/depusagetest.init">
<polygon fill="none" stroke="#484061" points="54,-520.52 0,-520.52 0,-484.52 54,-484.52 54,-520.52"/>
<text text-anchor="middle" x="27" y="-498.82" font-family="Times,serif" font-size="14.00">init</text>
</a>
</g>
</g>
<!-- n2363&#45;&gt;ext_2364 -->
<g id="edge19" class="edge">
<title>n2363&#45;&gt;ext_2364</title>
<g id="a_edge19"><a xlink:title="example.com/depusagetest/something.init()">
<path fill="none" stroke="#2b2b2b" d="M52.85,-520.71C68.72,-532.15 89.83,-547.04 109,-559.52 112.16,-561.58 115.48,-563.68 118.82,-565.75"/>
<polygon fill="#2b2b2b" stroke="#2b2b2b" points="117.27,-568.9 127.63,-571.13 120.92,-562.93 117.27,-568.9"/>
</a>
</g>
<text text-anchor="middle" x="84.5" y="-554.32" font-family="Times,serif" font-size="14.00">call</text>
</g>
<!-- n2363&#45;&gt;ext_1743 -->
<g id="edge18" class="edge">
<title>n2363&#45;&gt;ext_1743</title>
<g id="a_edge18"><a xlink:title="fmt.init()">
<path fill="none" stroke="#2b2b2b" d="M54.11,-491.53C72.78,-483.68 98.12,-473.02 118.6,-464.41"/>
<polygon fill="#2b2b2b" stroke="#2b2b2b" points="120.07,-467.59 127.93,-460.48 117.35,-461.14 120.07,-467.59"/>
</a>
</g>
<text text-anchor="middle" x="84.5" y="-487.32" font-family="Times,serif" font-size="14.00">call</text>
</g>
<!-- n2365 -->
<g id="node7" class="node">
<title>n2365</title>
<g id="a_node7"><a xlink:title="example.com/depusagetest.add">
<polygon fill="none" stroke="#484061" points="347,-213.52 293,-213.52 293,-177.52 347,-177.52 347,-213.52"/>
<text text-anchor="middle" x="320" y="-191.82" font-family="Times,serif" font-size="14.00">add</text>
</a>
</g>
</g>
<!-- n2366 -->
<g id="node8" class="node">
<title>n2366</title>
<g id="a_node8"><a xlink:title="example.com/depusagetest.triangle">
<polygon fill="none" stroke="#484061" points="356.5,-59.52 283.5,-59.52 283.5,-23.52 356.5,-23.52 356.5,-59.52"/>
<text text-anchor="middle" x="320" y="-37.82" font-family="Times,serif" font-size="14.00">triangle</text>
</a>
</g>
</g>
<!-- n2367 -->
<g id="node9" class="node">
<title>n2367</title>
<g id="a_node9"><a xlink:title="example.com/depusagetest.maybePanic">
<polygon fill="none" stroke="#484061" points="371,-159.52 269,-159.52 269,-123.52 371,-123.52 371,-159.52"/>
<text text-anchor="middle" x="320" y="-137.82" font-family="Times,serif" font-size="14.00">maybePanic</text>
</a>
</g>
</g>
<!-- panic_sink -->
<g id="node19" class="node">
<title>panic_sink</title>
<g id="a_node19"><a xlink:title="panic_sink">
<polygon fill="#722f37" stroke="#722f37" points="508,-159.52 446,-159.52 446,-123.52 508,-123.52 508,-159.52"/>
<text text-anchor="middle" x="477" y="-137.82" font-family="Times,serif" font-size="14.00" fill="white">PANIC</text>
</a>
</g>
</g>
<!-- n2367&#45;&gt;panic_sink -->
<g id="edge4" class="edge">
<title>n2367&#45;&gt;panic_sink</title>
<g id="a_edge4"><a xlink:title="panic t1">
<path fill="none" stroke="#722f37" stroke-width="2" d="M371.32,-141.52C393.98,-141.52 420.18,-141.52 440.7,-141.52"/>
<polygon fill="#722f37" stroke="#722f37" stroke-width="2" points="444.79,-136.52 444.79,-146.52 442.79,-146.52 442.79,-136.52 444.79,-136.52"/>
<polyline fill="none" stroke="#722f37" stroke-width="2" points="445.79,-141.52 440.79,-141.52 "/>
</a>
</g>
<text text-anchor="middle" x="408.5" y="-145.32" font-family="Times,serif" font-size="14.00">panic</text>
</g>
<!-- n2368 -->
<g id="node10" class="node">
<title>n2368</title>
<g id="a_node10"><a xlink:title="example.com/depusagetest.Map">
<polygon fill="none" stroke="#484061" points="54,-574.52 0,-574.52 0,-538.52 54,-538.52 54,-574.52"/>
<text text-anchor="middle" x="27" y="-552.82" font-family="Times,serif" font-size="14.00">Map</text>
</a>
</g>
</g>
<!-- n2369 -->
<g id="node11" class="node">
<title>n2369</title>
<g id="a_node11"><a xlink:title="example.com/depusagetest.mul">
<polygon fill="none" stroke="#484061" points="504,-271.52 450,-271.52 450,-235.52 504,-235.52 504,-271.52"/>
<text text-anchor="middle" x="477" y="-249.82" font-family="Times,serif" font-size="14.00">mul</text>
</a>
</g>
</g>
<!-- n2370 -->
<g id="node12" class="node">
<title>n2370</title>
<g id="a_node12"><a xlink:title="example.com/depusagetest.square">
<polygon fill="none" stroke="#484061" points="352.5,-271.52 287.5,-271.52 287.5,-235.52 352.5,-235.52 352.5,-271.52"/>
<text text-anchor="middle" x="320" y="-249.82" font-family="Times,serif" font-size="14.00">square</text>
</a>
</g>
</g>
<!-- n2370&#45;&gt;n2369 -->
<g id="edge5" class="edge">
<title>n2370&#45;&gt;n2369</title>
<g id="a_edge5"><a xlink:title="mul(x, x)">
<path fill="none" stroke="#2b2b2b" d="M352.74,-253.52C377.96,-253.52 413.26,-253.52 439.62,-253.52"/>
<polygon fill="#2b2b2b" stroke="#2b2b2b" points="439.96,-257.02 449.96,-253.52 439.96,-250.02 439.96,-257.02"/>
</a>
</g>
<text text-anchor="middle" x="408.5" y="-257.32" font-family="Times,serif" font-size="14.00">call</text>
</g>
<!-- n2371 -->
<g id="node13" class="node">
<title>n2371</title>
<g id="a_node13"><a xlink:title="example.com/depusagetest.worker">
<polygon fill="none" stroke="#484061" points="188.5,-305.52 121.5,-305.52 121.5,-269.52 188.5,-269.52 188.5,-305.52"/>
<text text-anchor="middle" x="155" y="-283.82" font-family="Times,serif" font-size="14.00">worker</text>
</a>
</g>
</g>
<!-- n2371&#45;&gt;n2370 -->
<g id="edge3" class="edge">
<title>n2371&#45;&gt;n2370</title>
<g id="a_edge3"><a xlink:title="square(t4)">
<path fill="none" stroke="#2b2b2b" d="M188.59,-280.72C214.05,-275.41 249.61,-267.99 277.16,-262.24"/>
<polygon fill="#2b2b2b" stroke="#2b2b2b" points="278.22,-265.6 287.29,-260.13 276.79,-258.75 278.22,-265.6"/>
</a>
</g>
<text text-anchor="middle" x="232" y="-280.32" font-family="Times,serif" font-size="14.00">call</text>
</g>
<!-- n2372 -->
<g id="node14" class="node">
<title>n2372</title>
<g id="a_node14"><a xlink:title="example.com/depusagetest.worker$1">
<polygon fill="none" stroke="#6c3636" stroke-dasharray="5,2" points="362.5,-330.52 277.5,-330.52 277.5,-294.52 362.5,-294.52 362.5,-330.52"/>
<text text-anchor="middle" x="320" y="-308.82" font-family="Times,serif" font-size="14.00">worker$1</text>
</a>
</g>
</g>
<!-- n2371&#45;&gt;n2372 -->
<g id="edge2" class="edge">
<title>n2371&#45;&gt;n2372</title>
<g id="a_edge2"><a xlink:title="deferred defer t1()">
<path fill="none" stroke="#9467bd" stroke-dasharray="1,5" d="M188.59,-292.52C210.55,-295.88 240.02,-300.4 265.39,-304.29"/>
<polygon fill="#9467bd" stroke="#9467bd" points="265.6,-304.33 272.14,-301.28 277.47,-306.15 270.93,-309.19 265.6,-304.33"/>
</a>
</g>
<text text-anchor="middle" x="232" y="-305.32" font-family="Times,serif" font-size="14.00">defer</text>
</g>
<!-- n2373 -->
<g id="node15" class="node">
<title>n2373</title>
<g id="a_node15"><a xlink:title="example.com/depusagetest.main">
<polygon fill="none" stroke="#484061" points="54,-244.52 0,-244.52 0,-208.52 54,-208.52 54,-244.52"/>
<text text-anchor="middle" x="27" y="-222.82" font-family="Times,serif" font-size="14.00">main</text>
</a>
</g>
</g>
<!-- n2373&#45;&gt;ext_2376 -->
<g id="edge13" class="edge">
<title>n2373&#45;&gt;ext_2376</title>
<g id="a_edge13"><a xlink:title="example.com/depusagetest/something.Map[int int](t38, square)&#10;example.com/depusagetest/something.Map[float32 float32](t52, main$3)">
<path fill="none" stroke="#2b2b2b" d="M33.14,-244.57C41.21,-272.79 57.43,-329.04 72,-376.52 82.68,-411.32 87.02,-419.51 97,-454.52 103.03,-475.66 96.33,-484.54 109,-502.52 111.97,-506.73 115.73,-510.51 119.81,-513.85"/>
<polygon fill="#2b2b2b" stroke="#2b2b2b" points="117.77,-516.7 127.92,-519.75 121.88,-511.04 117.77,-516.7"/>
</a>
</g>
<text text-anchor="middle" x="84.5" y="-458.32" font-family="Times,serif" font-size="14.00">call</text>
</g>
<!-- n2373&#45;&gt;ext_1704 -->
<g id="edge10" class="edge">
<title>n2373&#45;&gt;ext_1704</title>
<g id="a_edge10"><a xlink:title="fmt.Println(t19...)&#10;fmt.Println(t45...)&#10;fmt.Println(t59...)">
<path fill="none" stroke="#2b2b2b" d="M34.3,-244.84C41.76,-265.34 55.3,-299.14 72,-325.52 85.49,-346.82 89.72,-352.27 109,-368.52 110.34,-369.65 111.73,-370.76 113.17,-371.85"/>
<polygon fill="#2b2b2b" stroke="#2b2b2b" points="111.47,-374.94 121.66,-377.85 115.51,-369.22 111.47,-374.94"/>
</a>
</g>
<text text-anchor="middle" x="84.5" y="-361.32" font-family="Times,serif" font-size="14.00">call</text>
</g>
<!-- n2373&#45;&gt;ext_1570 -->
<g id="edge11" class="edge">
<title>n2373&#45;&gt;ext_1570</title>
<g id="a_edge11"><a xlink:title="fmt.Printf(&quot;Somthing %s&quot;:string, t24...)&#10;fmt.Printf(&quot;Triangle %f&quot;:string, t30...)">
<path fill="none" stroke="#2b2b2b" d="M39.28,-244.64C47.51,-257.14 59.4,-273.73 72,-286.52 86.47,-301.21 91.91,-302.97 109,-314.52 111.56,-316.25 114.23,-317.99 116.94,-319.72"/>
<polygon fill="#2b2b2b" stroke="#2b2b2b" points="115.28,-322.81 125.62,-325.12 118.98,-316.87 115.28,-322.81"/>
</a>
</g>
<text text-anchor="middle" x="84.5" y="-310.32" font-family="Times,serif" font-size="14.00">call</text>
</g>
<!-- n2373&#45;&gt;n2366 -->
<g id="edge9" class="edge">
<title>n2373&#45;&gt;n2366</title>
<g id="a_edge9"><a xlink:title="*t15 = triangle">
<path fill="none" stroke="#000000" stroke-dasharray="1,5" d="M30.63,-208.47C36.89,-172.87 56.3,-94.18 109,-60.52 158.23,-29.07 227.68,-29.45 273.01,-34.19"/>
<polygon fill="#000000" stroke="#000000" points="272.81,-37.69 283.15,-35.36 273.62,-30.73 272.81,-37.69"/>
</a>
</g>
</g>
<!-- n2373&#45;&gt;n2366 -->
<g id="edge12" class="edge">
<title>n2373&#45;&gt;n2366</title>
<g id="a_edge12"><a xlink:title="triangle(1:float32, 2:float32)">
<path fill="none" stroke="#2b2b2b" d="M27.83,-208.39C28.54,-164.11 37.56,-51.36 109,-14.52 161.05,12.33 229.64,-4.7 274.03,-21.38"/>
<polygon fill="#2b2b2b" stroke="#2b2b2b" points="272.81,-24.66 283.4,-25.03 275.35,-18.14 272.81,-24.66"/>
</a>
</g>
<text text-anchor="middle" x="155" y="-18.32" font-family="Times,serif" font-size="14.00">call</text>
</g>
<!-- n2373&#45;&gt;n2370 -->
<g id="edge14" class="edge">
<title>n2373&#45;&gt;n2370</title>
<g id="a_edge14"><a xlink:title="example.com/depusagetest/something.Map[int int](t38, square)">
<path fill="none" stroke="#000000" stroke-dasharray="1,5" d="M54.08,-228.94C104.59,-233.62 216.14,-243.97 277.14,-249.63"/>
<polygon fill="#000000" stroke="#000000" points="276.92,-253.13 287.2,-250.57 277.56,-246.16 276.92,-253.13"/>
</a>
</g>
</g>
<!-- n2373&#45;&gt;n2371 -->
<g id="edge6" class="edge">
<title>n2373&#45;&gt;n2371</title>
<g id="a_edge6"><a xlink:title="concurrent go worker(1:int, t4, t5)&#10;concurrent go worker(2:int, t7, t8)">
<path fill="none" stroke="#1f77b4" stroke-dasharray="5,2" d="M53.51,-244.63C59.44,-248.47 65.82,-252.32 72,-255.52 85.16,-262.33 100.12,-268.57 113.62,-273.69"/>
<ellipse fill="#1f77b4" stroke="#1f77b4" cx="117.63" cy="-275.19" rx="4" ry="4"/>
</a>
</g>
<text text-anchor="middle" x="84.5" y="-271.32" font-family="Times,serif" font-size="14.00">go</text>
</g>
<!-- n2374 -->
<g id="node16" class="node">
<title>n2374</title>
<g id="a_node16"><a xlink:title="example.com/depusagetest.main$1">
<polygon fill="none" stroke="#6c3636" stroke-dasharray="5,2" points="190,-213.52 120,-213.52 120,-177.52 190,-177.52 190,-213.52"/>
<text text-anchor="middle" x="155" y="-191.82" font-family="Times,serif" font-size="14.00">main$1</text>
</a>
</g>
</g>
<!-- n2373&#45;&gt;n2374 -->
<g id="edge7" class="edge">
<title>n2373&#45;&gt;n2374</title>
<g id="a_edge7"><a xlink:title="concurrent go t9()">
<path fill="none" stroke="#1f77b4" stroke-dasharray="5,2" d="M54.39,-217.63C60.16,-215.82 66.26,-214.02 72,-212.52 84.93,-209.13 99.14,-205.98 112.06,-203.34"/>
<ellipse fill="#1f77b4" stroke="#1f77b4" cx="115.98" cy="-202.55" rx="4" ry="4"/>
</a>
</g>
<text text-anchor="middle" x="84.5" y="-216.32" font-family="Times,serif" font-size="14.00">go</text>
</g>
<!-- n2375 -->
<g id="node17" class="node">
<title>n2375</title>
<g id="a_node17"><a xlink:title="example.com/depusagetest.main$2">
<polygon fill="none" stroke="#6c3636" stroke-dasharray="5,2" points="190,-159.52 120,-159.52 120,-123.52 190,-123.52 190,-159.52"/>
<text text-anchor="middle" x="155" y="-137.82" font-family="Times,serif" font-size="14.00">main$2</text>
</a>
</g>
</g>
<!-- n2373&#45;&gt;n2375 -->
<g id="edge8" class="edge">
<title>n2373&#45;&gt;n2375</title>
<g id="a_edge8"><a xlink:title="main$2(t12)">
<path fill="none" stroke="#2b2b2b" d="M47.49,-208.27C54.91,-201.71 63.6,-194.47 72,-188.52 84.29,-179.81 98.32,-171.3 111.25,-163.97"/>
<polygon fill="#2b2b2b" stroke="#2b2b2b" points="112.96,-167.02 119.99,-159.09 109.55,-160.91 112.96,-167.02"/>
</a>
</g>
<text text-anchor="middle" x="84.5" y="-192.32" font-family="Times,serif" font-size="14.00">call</text>
</g>
<!-- n2377 -->
<g id="node18" class="node">
<title>n2377</title>
<g id="a_node18"><a xlink:title="example.com/depusagetest.main$3">
<polygon fill="none" stroke="#6c3636" stroke-dasharray="5,2" points="190,-105.52 120,-105.52 120,-69.52 190,-69.52 190,-105.52"/>
<text text-anchor="middle" x="155" y="-83.82" font-family="Times,serif" font-size="14.00">main$3</text>
</a>
</g>
</g>
<!-- n2373&#45;&gt;n2377 -->
<g id="edge15" class="edge">
<title>n2373&#45;&gt;n2377</title>
<g id="a_edge15"><a xlink:title="example.com/depusagetest/something.Map[float32 float32](t52, main$3)">
<path fill="none" stroke="#000000" stroke-dasharray="1,5" d="M37.9,-208.5C51.57,-184.82 78.06,-142.91 109,-114.52 110.09,-113.52 111.22,-112.53 112.39,-111.57"/>
<polygon fill="#000000" stroke="#000000" points="114.56,-114.32 120.47,-105.52 110.36,-108.72 114.56,-114.32"/>
</a>
</g>
</g>
<!-- n2374&#45;&gt;n2365 -->
<g id="edge1" class="edge">
<title>n2374&#45;&gt;n2365</title>
<g id="a_edge1"><a xlink:title="add(2:int, 3:int)&#10;add(4:int, 5:int)">
<path fill="none" stroke="#2b2b2b" d="M190.17,-195.52C217.32,-195.52 255.2,-195.52 282.85,-195.52"/>
<polygon fill="#2b2b2b" stroke="#2b2b2b" points="282.91,-199.02 292.91,-195.52 282.91,-192.02 282.91,-199.02"/>
</a>
</g>
<text text-anchor="middle" x="232" y="-199.32" font-family="Times,serif" font-size="14.00">call</text>
</g>
<!-- n2375&#45;&gt;n2367 -->
<g id="edge17" class="edge">
<title>n2375&#45;&gt;n2367</title>
<g id="a_edge17"><a xlink:title="maybePanic(v)">
<path fill="none" stroke="#2b2b2b" d="M190.17,-141.52C210.01,-141.52 235.58,-141.52 258.7,-141.52"/>
<polygon fill="#2b2b2b" stroke="#2b2b2b" points="258.78,-145.02 268.78,-141.52 258.78,-138.02 258.78,-145.02"/>
</a>
</g>
<text text-anchor="middle" x="232" y="-145.32" font-family="Times,serif" font-size="14.00">call</text>
</g>
<!-- n2377&#45;&gt;n2366 -->
<g id="edge16" class="edge">
<title>n2377&#45;&gt;n2366</title>
<g id="a_edge16"><a xlink:title="triangle(h, 3:float32)">
<path fill="none" stroke="#2b2b2b" d="M190.17,-77.87C214.42,-71.03 247.24,-61.77 273.68,-54.31"/>
<polygon fill="#2b2b2b" stroke="#2b2b2b" points="274.79,-57.63 283.47,-51.54 272.89,-50.89 274.79,-57.63"/>
</a>
</g>
<text text-anchor="middle" x="232" y="-75.32" font-family="Times,serif" font-size="14.00">call</text>
</g>
</g>
</svg>
